<svg xmlns="http://www.w3.org/2000/svg" width="778" height="761" viewBox="0 0 778 761" fill="none">
  <defs>
    <linearGradient id="bg" x1="40" y1="20" x2="740" y2="730" gradientUnits="userSpaceOnUse">
      <stop stop-color="#0F172A"/>
      <stop offset="1" stop-color="#1E293B"/>
    </linearGradient>
    <linearGradient id="card" x1="0" y1="0" x2="1" y2="1">
      <stop stop-color="#111827"/>
      <stop offset="1" stop-color="#0B1220"/>
    </linearGradient>
    <linearGradient id="accent" x1="0" y1="0" x2="1" y2="1">
      <stop stop-color="#FB6514"/>
      <stop offset="1" stop-color="#F59E0B"/>
    </linearGradient>
  </defs>

  <rect x="0" y="0" width="778" height="761" rx="36" fill="url(#bg)"/>
  <rect x="44" y="42" width="690" height="677" rx="28" fill="#0B1220" stroke="#263042"/>

  <text x="84" y="106" fill="#E5E7EB" font-family="Arial, sans-serif" font-size="28" font-weight="700">ZontroPay Revenue Control Center</text>
  <text x="84" y="136" fill="#94A3B8" font-family="Arial, sans-serif" font-size="14">Approval Rate, Retry Recovery, Settlement Health</text>

  <rect x="84" y="170" width="190" height="100" rx="14" fill="url(#card)" stroke="#2F3A4C"/>
  <text x="102" y="205" fill="#94A3B8" font-family="Arial, sans-serif" font-size="13">Approval Rate</text>
  <text x="102" y="245" fill="#F8FAFC" font-family="Arial, sans-serif" font-size="34" font-weight="700">96.4%</text>

  <rect x="294" y="170" width="190" height="100" rx="14" fill="url(#card)" stroke="#2F3A4C"/>
  <text x="312" y="205" fill="#94A3B8" font-family="Arial, sans-serif" font-size="13">Recovered Revenue</text>
  <text x="312" y="245" fill="#F8FAFC" font-family="Arial, sans-serif" font-size="34" font-weight="700">$184k</text>

  <rect x="504" y="170" width="190" height="100" rx="14" fill="url(#card)" stroke="#2F3A4C"/>
  <text x="522" y="205" fill="#94A3B8" font-family="Arial, sans-serif" font-size="13">Settlements On Time</text>
  <text x="522" y="245" fill="#F8FAFC" font-family="Arial, sans-serif" font-size="34" font-weight="700">99.1%</text>

  <rect x="84" y="296" width="610" height="250" rx="16" fill="#0F172A" stroke="#2F3A4C"/>
  <text x="106" y="330" fill="#CBD5E1" font-family="Arial, sans-serif" font-size="14">Payment Success Trend</text>
  <polyline points="110,500 180,470 250,476 320,430 390,438 460,392 530,410 600,360 670,350" fill="none" stroke="url(#accent)" stroke-width="6" stroke-linecap="round" stroke-linejoin="round"/>
  <line x1="110" y1="512" x2="670" y2="512" stroke="#334155"/>

  <rect x="84" y="570" width="290" height="120" rx="14" fill="url(#card)" stroke="#2F3A4C"/>
  <text x="104" y="605" fill="#E2E8F0" font-family="Arial, sans-serif" font-size="16" font-weight="700">Smart Retry Actions</text>
  <text x="104" y="633" fill="#94A3B8" font-family="Arial, sans-serif" font-size="13">47 failed card attempts recovered in last 24h</text>

  <rect x="404" y="570" width="290" height="120" rx="14" fill="url(#card)" stroke="#2F3A4C"/>
  <text x="424" y="605" fill="#E2E8F0" font-family="Arial, sans-serif" font-size="16" font-weight="700">Gateway Health</text>
  <text x="424" y="633" fill="#94A3B8" font-family="Arial, sans-serif" font-size="13">Primary: Healthy · Backup: Ready · Latency: 138ms</text>

  <circle cx="690" cy="86" r="10" fill="#22C55E"/>
</svg>
