<svg xmlns="http://www.w3.org/2000/svg" width="830" height="830" viewBox="0 0 830 830" fill="none">
  <rect width="830" height="830" rx="28" fill="#0B1220"/>
  <rect x="46" y="44" width="738" height="742" rx="20" fill="#111827" stroke="#334155"/>
  <text x="84" y="104" fill="#E5E7EB" font-family="Arial, sans-serif" font-size="28" font-weight="700">Performance Operations</text>
  <text x="84" y="136" fill="#94A3B8" font-family="Arial, sans-serif" font-size="14">Latency, gateway uptime, and conversion throughput in one view</text>

  <rect x="84" y="178" width="218" height="140" rx="14" fill="#0F172A" stroke="#334155"/>
  <text x="106" y="214" fill="#94A3B8" font-family="Arial, sans-serif" font-size="12">Avg Gateway Latency</text>
  <text x="106" y="276" fill="#F8FAFC" font-family="Arial, sans-serif" font-size="44" font-weight="700">138ms</text>

  <rect x="314" y="178" width="218" height="140" rx="14" fill="#0F172A" stroke="#334155"/>
  <text x="336" y="214" fill="#94A3B8" font-family="Arial, sans-serif" font-size="12">Success Throughput</text>
  <text x="336" y="276" fill="#F8FAFC" font-family="Arial, sans-serif" font-size="44" font-weight="700">2.1k</text>

  <rect x="544" y="178" width="202" height="140" rx="14" fill="#0F172A" stroke="#334155"/>
  <text x="566" y="214" fill="#94A3B8" font-family="Arial, sans-serif" font-size="12">Uptime</text>
  <text x="566" y="276" fill="#F8FAFC" font-family="Arial, sans-serif" font-size="44" font-weight="700">99.98%</text>

  <rect x="84" y="338" width="662" height="230" rx="14" fill="#0F172A" stroke="#334155"/>
  <text x="108" y="376" fill="#E2E8F0" font-family="Arial, sans-serif" font-size="16" font-weight="700">Transaction Performance Timeline</text>
  <polyline points="112,536 170,510 228,518 286,492 344,500 402,470 460,478 518,450 576,458 634,430 692,420" fill="none" stroke="#FB6514" stroke-width="5" stroke-linecap="round"/>

  <rect x="84" y="588" width="662" height="148" rx="14" fill="#0F172A" stroke="#334155"/>
  <text x="108" y="626" fill="#E2E8F0" font-family="Arial, sans-serif" font-size="16" font-weight="700">Optimization Recommendation</text>
  <text x="108" y="664" fill="#94A3B8" font-family="Arial, sans-serif" font-size="13">Shift 18% traffic to secondary acquirer during peak hours to reduce decline spikes.</text>
</svg>
