<svg xmlns="http://www.w3.org/2000/svg" width="237" height="16" viewBox="0 0 237 16" fill="none"><rect width="3" height="16" rx="1.5" fill="#42D195"></rect><rect x="6" width="3" height="16" rx="1.5" fill="#42D195"></rect><rect x="12" width="3" height="16" rx="1.5" fill="#42D195"></rect><rect x="18" width="3" height="16" rx="1.5" fill="#42D195"></rect><rect x="24" width="3" height="16" rx="1.5" fill="#42D195"></rect><rect x="30" width="3" height="16" rx="1.5" fill="#42D195"></rect><rect x="36" width="3" height="16" rx="1.5" fill="#42D195"></rect><rect x="42" width="3" height="16" rx="1.5" fill="#42D195"></rect><rect x="48" width="3" height="16" rx="1.5" fill="#42D195"></rect><rect x="54" width="3" height="16" rx="1.5" fill="#42D195"></rect><rect x="60" width="3" height="16" rx="1.5" fill="#42D195"></rect><rect x="66" width="3" height="16" rx="1.5" fill="#42D195"></rect><rect x="72" width="3" height="16" rx="1.5" fill="#42D195"></rect><rect x="78" width="3" height="16" rx="1.5" fill="#42D195"></rect><rect x="84" width="3" height="16" rx="1.5" fill="#42D195"></rect><rect x="90" width="3" height="16" rx="1.5" fill="#42D195"></rect><rect x="96" width="3" height="16" rx="1.5" fill="#42D195"></rect><rect x="102" width="3" height="16" rx="1.5" fill="#42D195"></rect><rect x="108" width="3" height="16" rx="1.5" fill="#42D195"></rect><rect x="114" width="3" height="16" rx="1.5" fill="#42D195"></rect><rect x="120" width="3" height="16" rx="1.5" fill="#42D195"></rect><rect x="126" width="3" height="16" rx="1.5" fill="#42D195"></rect><rect x="132" width="3" height="16" rx="1.5" fill="#42D195"></rect><rect x="138" width="3" height="16" rx="1.5" fill="#42D195"></rect><rect x="144" width="3" height="16" rx="1.5" fill="#42D195"></rect><rect x="150" width="3" height="16" rx="1.5" fill="#42D195"></rect><rect x="156" width="3" height="16" rx="1.5" fill="#42D195"></rect><rect x="162" width="3" height="16" rx="1.5" fill="#42D195"></rect><rect x="168" width="3" height="16" rx="1.5" fill="#42D195"></rect><rect x="174" width="3" height="16" rx="1.5" fill="#42D195"></rect><rect x="180" width="3" height="16" rx="1.5" fill="#CCCCCC"></rect><rect x="186" width="3" height="16" rx="1.5" fill="#CCCCCC"></rect><rect x="192" width="3" height="16" rx="1.5" fill="#CCCCCC"></rect><rect x="198" width="3" height="16" rx="1.5" fill="#CCCCCC"></rect><rect x="204" width="3" height="16" rx="1.5" fill="#CCCCCC"></rect><rect x="210" width="3" height="16" rx="1.5" fill="#CCCCCC"></rect><rect x="216" width="3" height="16" rx="1.5" fill="#CCCCCC"></rect><rect x="222" width="3" height="16" rx="1.5" fill="#CCCCCC"></rect><rect x="228" width="3" height="16" rx="1.5" fill="#CCCCCC"></rect><rect x="234" width="3" height="16" rx="1.5" fill="#CCCCCC"></rect></svg>