<svg width="742" height="708" viewBox="0 0 742 708" fill="none" xmlns="http://www.w3.org/2000/svg">
<g filter="url(#filter0_f_1262_30)">
<path d="M-66.0225 496.732C-52.2279 389.804 45.6373 314.304 152.566 328.099C259.494 341.893 334.994 439.759 321.199 546.687C307.404 653.615 209.539 729.115 102.611 715.32C-4.31733 701.526 -79.8171 603.66 -66.0225 496.732Z" fill="#FFF386" fillOpacity="0.75"/>
</g>
<g filter="url(#filter1_f_1262_30)">
<path d="M173.974 390.938C183.522 311.599 251.26 255.58 325.271 265.815C399.283 276.05 451.54 348.665 441.992 428.004C432.444 507.343 364.706 563.362 290.695 553.127C216.684 542.891 164.426 470.277 173.974 390.938Z" fill="#2EDF84"/>
</g>
<defs>
<filter id="filter0_f_1262_30" x="-298.896" y="95.2247" width="852.969" height="852.969" filterUnits="userSpaceOnUse" color-interpolation-filters="sRGB">
<feFlood flood-opacity="0" result="BackgroundImageFix"/>
<feBlend mode="normal" in="SourceGraphic" in2="BackgroundImageFix" result="shape"/>
<feGaussianBlur stdDeviation="115.624" result="effect1_foregroundBlur_1262_30"/>
</filter>
<filter id="filter1_f_1262_30" x="-125.924" y="-34.1637" width="867.814" height="887.269" filterUnits="userSpaceOnUse" color-interpolation-filters="sRGB">
<feFlood flood-opacity="0" result="BackgroundImageFix"/>
<feBlend mode="normal" in="SourceGraphic" in2="BackgroundImageFix" result="shape"/>
<feGaussianBlur stdDeviation="149.386" result="effect1_foregroundBlur_1262_30"/>
</filter>
</defs>
</svg>
