<svg xmlns="http://www.w3.org/2000/svg" width="94" height="80" viewBox="0 0 94 80" fill="none"><path d="M87.0638 15.5614C87.0237 14.7704 86.9005 13.991 86.6956 13.223C86.6655 13.1127 86.634 13.0024 86.6025 12.8935C85.6883 9.85882 83.5148 7.31703 80.354 5.31542C76.9282 3.14329 72.3418 1.60591 66.9416 0.760555C59.3019 -0.434398 50.0332 -0.24527 40.1168 1.49845C36.9875 2.04864 33.7938 2.75358 30.5672 3.61755C29.2533 3.97002 27.9566 4.34255 26.6814 4.7337C24.3746 5.44007 22.1323 6.20805 19.9645 7.03048C17.6362 7.91308 15.3924 8.85729 13.2475 9.85309C12.6357 10.1382 12.0311 10.4262 11.435 10.7185L6.21249 41.8561C7.4361 41.1425 8.70556 40.4419 10.0194 39.7584C11.0682 39.2125 12.1443 38.6753 13.2475 38.1508C15.391 37.1293 17.6348 36.1507 19.9645 35.2236C22.1309 34.3597 24.3732 33.5415 26.6814 32.775C29.0699 31.9812 31.5286 31.2433 34.0489 30.5685C36.0878 30.0226 38.1123 29.5311 40.1168 29.0956C49.7867 26.9922 58.981 26.1612 66.9416 26.4979C71.9664 26.7085 76.5012 27.3848 80.354 28.4981C80.6578 28.5855 80.9572 28.6772 81.2524 28.7703C81.9731 27.9594 82.6322 27.1441 83.2268 26.326C85.568 23.1122 86.9105 19.8712 87.0638 16.7649V15.5614Z" fill="white"></path><path d="M14.1373 53.1723C15.987 53.2411 17.8998 53.2411 19.8642 53.1723L19.9645 53.1694C22.1438 53.0906 24.3875 52.9273 26.6814 52.6751C31.0114 52.2037 35.5204 51.42 40.1168 50.311C41.0381 50.0903 41.9622 49.8539 42.8892 49.6061C51.9431 47.1803 60.1373 43.7961 66.9416 39.896C67.0218 39.8516 67.1007 39.8057 67.1795 39.7584C72.5295 36.6693 77.0085 33.2593 80.354 29.7475C80.6635 29.4222 80.963 29.097 81.2524 28.7703C83.4403 29.4609 85.3889 30.3005 87.0638 31.2834C90.428 33.2607 92.6789 35.8168 93.5085 38.9088C93.5845 39.1896 93.6475 39.4733 93.6962 39.7584C93.7794 40.2184 93.8295 40.684 93.8467 41.154C93.8481 41.2127 93.8539 41.356 93.8524 41.5451C93.8524 41.7672 93.8467 42.0337 93.8467 42.0337C93.702 45.6086 91.8236 49.4069 88.541 53.1723C88.0768 53.7053 87.5839 54.2369 87.0638 54.7684C85.1725 56.6998 82.9202 58.6126 80.354 60.471C77.4197 62.5987 74.0712 64.6533 70.3803 66.5861C69.2642 67.1693 68.1179 67.741 66.9416 68.3012C60.7491 71.247 53.7398 73.839 46.1847 75.8635C44.1458 76.4094 42.1213 76.9009 40.1168 77.3364C35.5032 78.3408 30.997 79.0544 26.6814 79.4885C24.3847 79.722 22.1409 79.8754 19.9645 79.9499C19.2409 79.9756 18.5245 79.9928 17.8167 80H15.7076C14.8752 79.99 14.0556 79.9685 13.2475 79.9327C8.35596 79.7249 3.93005 79.0758 0.147461 78.0098L4.49313 52.1063C7.19396 52.6379 10.1283 52.9846 13.2475 53.135L14.1373 53.1723Z" fill="white"></path></svg>