<svg width="303" height="155" viewBox="0 0 303 155" fill="none" xmlns="http://www.w3.org/2000/svg">
<g clipPath="url(#clip0_1836_1243)">
<g filter="url(#filter0_bd_1836_1243)">
<rect x="11.2031" y="22.6094" width="262.418" height="117.112" rx="6.50622" fill="white" fillOpacity="0.95" shape-rendering="crispEdges"/>
</g>
<line x1="11.2031" y1="59.2055" x2="273.621" y2="59.2055" stroke="#DFDFDF" strokeWidth="0.542185"/>
<line x1="189.853" y1="102.852" x2="189.853" y2="118.033" stroke="#474746" strokeWidth="0.542185"/>
<path d="M28.8884 94.0801V85.5976H34.4106V86.7931H30.232V89.3435H33.9552V90.5391H30.232V94.0801H28.8884ZM35.4124 94.0801V87.9203H36.699V94.0801H35.4124ZM35.4124 87.0778V85.5976H36.699V87.0778H35.4124ZM38.2032 94.0801V87.9203H39.4329V89.1272L39.2849 88.9678C39.4367 88.5807 39.6796 88.2885 40.0136 88.0911C40.3476 87.8862 40.7347 87.7837 41.175 87.7837C41.6304 87.7837 42.0327 87.8824 42.3819 88.0797C42.731 88.2771 43.0043 88.5503 43.2016 88.8995C43.399 89.2487 43.4977 89.651 43.4977 90.1064V94.0801H42.2225V90.448C42.2225 90.1368 42.1655 89.8749 42.0517 89.6624C41.9378 89.4422 41.7746 89.2752 41.5621 89.1614C41.3571 89.0399 41.1218 88.9792 40.8562 88.9792C40.5905 88.9792 40.3514 89.0399 40.1388 89.1614C39.9339 89.2752 39.7745 89.4422 39.6606 89.6624C39.5468 89.8825 39.4898 90.1444 39.4898 90.448V94.0801H38.2032ZM47.7211 94.2167C47.1291 94.2167 46.5977 94.0763 46.1271 93.7954C45.6641 93.507 45.2959 93.1199 45.0227 92.6341C44.757 92.1483 44.6242 91.6018 44.6242 90.9945C44.6242 90.3873 44.7608 89.8407 45.0341 89.3549C45.3073 88.8691 45.6755 88.4858 46.1385 88.205C46.6015 87.9241 47.1253 87.7837 47.7097 87.7837C48.2031 87.7837 48.6396 87.8824 49.0191 88.0797C49.3987 88.2771 49.6985 88.5503 49.9186 88.8995L49.725 89.1955V85.461H51.0003V94.0801H49.782V92.8276L49.93 93.0667C49.7175 93.4387 49.4138 93.7233 49.0191 93.9207C48.6244 94.118 48.1917 94.2167 47.7211 94.2167ZM47.8464 93.0212C48.2031 93.0212 48.5219 92.9339 48.8028 92.7593C49.0912 92.5847 49.3152 92.3456 49.4746 92.042C49.6416 91.7308 49.725 91.3816 49.725 90.9945C49.725 90.6074 49.6416 90.262 49.4746 89.9584C49.3152 89.6548 49.0912 89.4157 48.8028 89.2411C48.5219 89.0665 48.2031 88.9792 47.8464 88.9792C47.4896 88.9792 47.167 89.0665 46.8786 89.2411C46.5901 89.4157 46.3662 89.6548 46.2068 89.9584C46.0474 90.262 45.9677 90.6074 45.9677 90.9945C45.9677 91.3816 46.0474 91.7308 46.2068 92.042C46.3662 92.3456 46.5863 92.5847 46.8672 92.7593C47.1556 92.9339 47.482 93.0212 47.8464 93.0212ZM57.1569 94.1484C56.5117 94.1484 56.0107 93.9662 55.654 93.6019C55.2972 93.2375 55.1188 92.7252 55.1188 92.0648V89.0817H54.0372V87.9203H54.208C54.4964 87.9203 54.7203 87.8368 54.8797 87.6698C55.0391 87.5028 55.1188 87.2751 55.1188 86.9867V86.5085H56.4054V87.9203H57.8059V89.0817H56.4054V92.0078C56.4054 92.2204 56.4396 92.4026 56.5079 92.5544C56.5762 92.6986 56.6863 92.8124 56.8381 92.8959C56.9899 92.9719 57.1873 93.0098 57.4302 93.0098C57.4909 93.0098 57.5592 93.006 57.6351 92.9984C57.711 92.9908 57.7831 92.9832 57.8515 92.9756V94.0801C57.7452 94.0953 57.6275 94.1104 57.4985 94.1256C57.3695 94.1408 57.2556 94.1484 57.1569 94.1484ZM59.107 94.0801V85.461H60.3936V89.1272L60.1887 88.9678C60.3405 88.5807 60.5834 88.2885 60.9174 88.0911C61.2514 87.8862 61.6385 87.7837 62.0787 87.7837C62.5342 87.7837 62.9365 87.8824 63.2856 88.0797C63.6348 88.2771 63.9081 88.5503 64.1054 88.8995C64.3028 89.2487 64.4015 89.6472 64.4015 90.095V94.0801H63.1262V90.448C63.1262 90.1368 63.0655 89.8749 62.9441 89.6624C62.8302 89.4422 62.6708 89.2752 62.4659 89.1614C62.2609 89.0399 62.0256 88.9792 61.7599 88.9792C61.5018 88.9792 61.2665 89.0399 61.054 89.1614C60.8491 89.2752 60.6859 89.4422 60.5644 89.6624C60.4506 89.8825 60.3936 90.1444 60.3936 90.448V94.0801H59.107ZM68.6704 94.2167C68.0556 94.2167 67.5091 94.0763 67.0309 93.7954C66.5603 93.507 66.1921 93.1199 65.9265 92.6341C65.6608 92.1407 65.5279 91.5904 65.5279 90.9831C65.5279 90.3607 65.6608 89.8104 65.9265 89.3322C66.1997 88.854 66.5641 88.4782 67.0195 88.205C67.4749 87.9241 67.9911 87.7837 68.568 87.7837C69.031 87.7837 69.4447 87.8634 69.809 88.0228C70.1734 88.1822 70.4808 88.4023 70.7313 88.6832C70.9818 88.9564 71.1715 89.2714 71.3006 89.6282C71.4372 89.985 71.5055 90.3645 71.5055 90.7668C71.5055 90.8655 71.5017 90.9679 71.4941 91.0742C71.4866 91.1805 71.4714 91.2792 71.4486 91.3702H66.5413V90.3455H70.7199L70.1051 90.8123C70.181 90.4404 70.1544 90.1102 70.0254 89.8218C69.9039 89.5257 69.7142 89.2942 69.4561 89.1272C69.2056 88.9526 68.9096 88.8653 68.568 88.8653C68.2264 88.8653 67.9228 88.9526 67.6571 89.1272C67.3914 89.2942 67.1865 89.5371 67.0423 89.8559C66.898 90.1671 66.8411 90.5467 66.8715 90.9945C66.8335 91.412 66.8905 91.7763 67.0423 92.0875C67.2017 92.3988 67.4218 92.6417 67.7026 92.8162C67.9911 92.9908 68.3175 93.0781 68.6818 93.0781C69.0538 93.0781 69.3688 92.9946 69.6269 92.8276C69.8925 92.6606 70.1013 92.4443 70.2531 92.1786L71.3006 92.691C71.1791 92.9794 70.9894 93.2413 70.7313 93.4766C70.4808 93.7043 70.1772 93.8865 69.8204 94.0231C69.4713 94.1522 69.0879 94.2167 68.6704 94.2167ZM74.7515 94.0801V85.461H76.0381V94.0801H74.7515ZM80.4344 94.2167C79.8195 94.2167 79.273 94.0763 78.7948 93.7954C78.3242 93.507 77.9561 93.1199 77.6904 92.6341C77.4247 92.1407 77.2919 91.5904 77.2919 90.9831C77.2919 90.3607 77.4247 89.8104 77.6904 89.3322C77.9636 88.854 78.328 88.4782 78.7834 88.205C79.2389 87.9241 79.755 87.7837 80.3319 87.7837C80.7949 87.7837 81.2086 87.8634 81.573 88.0228C81.9373 88.1822 82.2447 88.4023 82.4952 88.6832C82.7457 88.9564 82.9355 89.2714 83.0645 89.6282C83.2012 89.985 83.2695 90.3645 83.2695 90.7668C83.2695 90.8655 83.2657 90.9679 83.2581 91.0742C83.2505 91.1805 83.2353 91.2792 83.2125 91.3702H78.3052V90.3455H82.4838L81.869 90.8123C81.9449 90.4404 81.9183 90.1102 81.7893 89.8218C81.6679 89.5257 81.4781 89.2942 81.22 89.1272C80.9695 88.9526 80.6735 88.8653 80.3319 88.8653C79.9903 88.8653 79.6867 88.9526 79.421 89.1272C79.1554 89.2942 78.9504 89.5371 78.8062 89.8559C78.662 90.1671 78.6051 90.5467 78.6354 90.9945C78.5975 91.412 78.6544 91.7763 78.8062 92.0875C78.9656 92.3988 79.1857 92.6417 79.4666 92.8162C79.755 92.9908 80.0814 93.0781 80.4458 93.0781C80.8177 93.0781 81.1327 92.9946 81.3908 92.8276C81.6565 92.6606 81.8652 92.4443 82.017 92.1786L83.0645 92.691C82.9431 92.9794 82.7533 93.2413 82.4952 93.4766C82.2447 93.7043 81.9411 93.8865 81.5844 94.0231C81.2352 94.1522 80.8519 94.2167 80.4344 94.2167ZM84.5251 94.0801V87.9203H85.7548V89.1272L85.6068 88.9678C85.7586 88.5807 86.0015 88.2885 86.3355 88.0911C86.6695 87.8862 87.0566 87.7837 87.4968 87.7837C87.9523 87.7837 88.3546 87.8824 88.7037 88.0797C89.0529 88.2771 89.3262 88.5503 89.5235 88.8995C89.7209 89.2487 89.8196 89.651 89.8196 90.1064V94.0801H88.5443V90.448C88.5443 90.1368 88.4874 89.8749 88.3735 89.6624C88.2597 89.4422 88.0965 89.2752 87.884 89.1614C87.679 89.0399 87.4437 88.9792 87.178 88.9792C86.9124 88.9792 86.6733 89.0399 86.4607 89.1614C86.2558 89.2752 86.0964 89.4422 85.9825 89.6624C85.8687 89.8825 85.8117 90.1444 85.8117 90.448V94.0801H84.5251ZM94.1683 96.585C93.7204 96.585 93.3067 96.5129 92.9272 96.3686C92.5477 96.2244 92.2213 96.0233 91.948 95.7652C91.6747 95.5147 91.4698 95.2187 91.3332 94.8771L92.5173 94.3875C92.6236 94.6759 92.8171 94.915 93.098 95.1048C93.3864 95.2946 93.7394 95.3895 94.1569 95.3895C94.4833 95.3895 94.7755 95.3249 95.0336 95.1959C95.2917 95.0744 95.4966 94.8923 95.6484 94.6494C95.8002 94.4141 95.8761 94.1294 95.8761 93.7954V92.4064L96.1039 92.6682C95.8913 93.0629 95.5953 93.3628 95.2158 93.5677C94.8438 93.7727 94.4225 93.8751 93.9519 93.8751C93.3826 93.8751 92.8703 93.7423 92.4148 93.4766C91.9594 93.211 91.5988 92.8466 91.3332 92.3836C91.0751 91.9206 90.946 91.4006 90.946 90.8237C90.946 90.2392 91.0751 89.7193 91.3332 89.2638C91.5988 88.8084 91.9556 88.4479 92.4034 88.1822C92.8513 87.9165 93.3637 87.7837 93.9405 87.7837C94.4112 87.7837 94.8286 87.8862 95.193 88.0911C95.5649 88.2885 95.8685 88.5769 96.1039 88.9564L95.9331 89.2752V87.9203H97.1514V93.7954C97.1514 94.3268 97.0223 94.8012 96.7642 95.2187C96.5137 95.6437 96.1646 95.9777 95.7167 96.2206C95.2689 96.4635 94.7527 96.585 94.1683 96.585ZM94.0999 92.6796C94.4415 92.6796 94.7451 92.5999 95.0108 92.4405C95.2765 92.2735 95.4852 92.0534 95.637 91.7801C95.7964 91.4993 95.8761 91.1843 95.8761 90.8351C95.8761 90.4859 95.7964 90.1709 95.637 89.8901C95.4776 89.6092 95.2651 89.3891 94.9994 89.2297C94.7338 89.0627 94.4339 88.9792 94.0999 88.9792C93.7508 88.9792 93.4396 89.0627 93.1663 89.2297C92.893 89.3891 92.6767 89.6092 92.5173 89.8901C92.3655 90.1633 92.2896 90.4783 92.2896 90.8351C92.2896 91.1767 92.3655 91.4879 92.5173 91.7687C92.6767 92.0496 92.893 92.2735 93.1663 92.4405C93.4396 92.5999 93.7508 92.6796 94.0999 92.6796ZM101.322 94.1484C100.677 94.1484 100.176 93.9662 99.8188 93.6019C99.462 93.2375 99.2836 92.7252 99.2836 92.0648V89.0817H98.202V87.9203H98.3728C98.6612 87.9203 98.8851 87.8368 99.0445 87.6698C99.2039 87.5028 99.2836 87.2751 99.2836 86.9867V86.5085H100.57V87.9203H101.971V89.0817H100.57V92.0078C100.57 92.2204 100.604 92.4026 100.673 92.5544C100.741 92.6986 100.851 92.8124 101.003 92.8959C101.155 92.9719 101.352 93.0098 101.595 93.0098C101.656 93.0098 101.724 93.006 101.8 92.9984C101.876 92.9908 101.948 92.9832 102.016 92.9756V94.0801C101.91 94.0953 101.792 94.1104 101.663 94.1256C101.534 94.1408 101.42 94.1484 101.322 94.1484ZM103.272 94.0801V85.461H104.558V89.1272L104.353 88.9678C104.505 88.5807 104.748 88.2885 105.082 88.0911C105.416 87.8862 105.803 87.7837 106.244 87.7837C106.699 87.7837 107.101 87.8824 107.45 88.0797C107.8 88.2771 108.073 88.5503 108.27 88.8995C108.468 89.2487 108.566 89.6472 108.566 90.095V94.0801H107.291V90.448C107.291 90.1368 107.23 89.8749 107.109 89.6624C106.995 89.4422 106.836 89.2752 106.631 89.1614C106.426 89.0399 106.19 88.9792 105.925 88.9792C105.667 88.9792 105.431 89.0399 105.219 89.1614C105.014 89.2752 104.851 89.4422 104.729 89.6624C104.615 89.8825 104.558 90.1444 104.558 90.448V94.0801H103.272ZM114.905 94.2167C114.313 94.2167 113.77 94.0763 113.277 93.7954C112.791 93.5146 112.404 93.1313 112.116 92.6455C111.827 92.1597 111.683 91.6093 111.683 90.9945C111.683 90.3721 111.827 89.8218 112.116 89.3435C112.404 88.8578 112.791 88.4782 113.277 88.205C113.763 87.9241 114.306 87.7837 114.905 87.7837C115.512 87.7837 116.055 87.9241 116.533 88.205C117.019 88.4782 117.403 88.8578 117.683 89.3435C117.972 89.8218 118.116 90.3721 118.116 90.9945C118.116 91.6169 117.972 92.171 117.683 92.6568C117.395 93.1426 117.008 93.526 116.522 93.8068C116.036 94.0801 115.497 94.2167 114.905 94.2167ZM114.905 93.0212C115.27 93.0212 115.592 92.9339 115.873 92.7593C116.154 92.5847 116.374 92.3456 116.533 92.042C116.7 91.7308 116.784 91.3816 116.784 90.9945C116.784 90.6074 116.7 90.262 116.533 89.9584C116.374 89.6548 116.154 89.4157 115.873 89.2411C115.592 89.0665 115.27 88.9792 114.905 88.9792C114.548 88.9792 114.226 89.0665 113.937 89.2411C113.657 89.4157 113.433 89.6548 113.266 89.9584C113.106 90.262 113.027 90.6074 113.027 90.9945C113.027 91.3816 113.106 91.7308 113.266 92.042C113.433 92.3456 113.657 92.5847 113.937 92.7593C114.226 92.9339 114.548 93.0212 114.905 93.0212ZM119.9 94.0801V89.0817H118.761V87.9203H119.9V87.6015C119.9 87.1385 119.995 86.7514 120.185 86.4401C120.374 86.1213 120.636 85.8784 120.97 85.7115C121.312 85.5445 121.703 85.461 122.143 85.461C122.226 85.461 122.321 85.4686 122.428 85.4837C122.534 85.4913 122.621 85.5027 122.689 85.5179V86.6337C122.629 86.6185 122.56 86.6109 122.485 86.6109C122.409 86.6033 122.348 86.5996 122.302 86.5996C121.961 86.5996 121.687 86.6793 121.483 86.8387C121.278 86.9905 121.175 87.2448 121.175 87.6015V87.9203H122.587V89.0817H121.175V94.0801H119.9ZM128.441 94.1484C127.796 94.1484 127.295 93.9662 126.938 93.6019C126.581 93.2375 126.403 92.7252 126.403 92.0648V89.0817H125.321V87.9203H125.492C125.781 87.9203 126.004 87.8368 126.164 87.6698C126.323 87.5028 126.403 87.2751 126.403 86.9867V86.5085H127.69V87.9203H129.09V89.0817H127.69V92.0078C127.69 92.2204 127.724 92.4026 127.792 92.5544C127.86 92.6986 127.97 92.8124 128.122 92.8959C128.274 92.9719 128.471 93.0098 128.714 93.0098C128.775 93.0098 128.843 93.006 128.919 92.9984C128.995 92.9908 129.067 92.9832 129.136 92.9756V94.0801C129.029 94.0953 128.912 94.1104 128.783 94.1256C128.654 94.1408 128.54 94.1484 128.441 94.1484ZM130.391 94.0801V85.461H131.678V89.1272L131.473 88.9678C131.625 88.5807 131.867 88.2885 132.201 88.0911C132.535 87.8862 132.923 87.7837 133.363 87.7837C133.818 87.7837 134.221 87.8824 134.57 88.0797C134.919 88.2771 135.192 88.5503 135.39 88.8995C135.587 89.2487 135.686 89.6472 135.686 90.095V94.0801H134.41V90.448C134.41 90.1368 134.35 89.8749 134.228 89.6624C134.114 89.4422 133.955 89.2752 133.75 89.1614C133.545 89.0399 133.31 88.9792 133.044 88.9792C132.786 88.9792 132.551 89.0399 132.338 89.1614C132.133 89.2752 131.97 89.4422 131.849 89.6624C131.735 89.8825 131.678 90.1444 131.678 90.448V94.0801H130.391ZM139.955 94.2167C139.34 94.2167 138.793 94.0763 138.315 93.7954C137.844 93.507 137.476 93.1199 137.211 92.6341C136.945 92.1407 136.812 91.5904 136.812 90.9831C136.812 90.3607 136.945 89.8104 137.211 89.3322C137.484 88.854 137.848 88.4782 138.304 88.205C138.759 87.9241 139.275 87.7837 139.852 87.7837C140.315 87.7837 140.729 87.8634 141.093 88.0228C141.457 88.1822 141.765 88.4023 142.015 88.6832C142.266 88.9564 142.456 89.2714 142.585 89.6282C142.721 89.985 142.79 90.3645 142.79 90.7668C142.79 90.8655 142.786 90.9679 142.778 91.0742C142.771 91.1805 142.755 91.2792 142.733 91.3702H137.825V90.3455H142.004L141.389 90.8123C141.465 90.4404 141.439 90.1102 141.309 89.8218C141.188 89.5257 140.998 89.2942 140.74 89.1272C140.49 88.9526 140.194 88.8653 139.852 88.8653C139.51 88.8653 139.207 88.9526 138.941 89.1272C138.676 89.2942 138.471 89.5371 138.326 89.8559C138.182 90.1671 138.125 90.5467 138.156 90.9945C138.118 91.412 138.175 91.7763 138.326 92.0875C138.486 92.3988 138.706 92.6417 138.987 92.8162C139.275 92.9908 139.602 93.0781 139.966 93.0781C140.338 93.0781 140.653 92.9946 140.911 92.8276C141.177 92.6606 141.385 92.4443 141.537 92.1786L142.585 92.691C142.463 92.9794 142.273 93.2413 142.015 93.4766C141.765 93.7043 141.461 93.8865 141.105 94.0231C140.755 94.1522 140.372 94.2167 139.955 94.2167ZM146.036 94.0801V85.461H147.322V94.0801H146.036ZM151.798 94.2167C151.206 94.2167 150.663 94.0763 150.17 93.7954C149.684 93.5146 149.297 93.1313 149.009 92.6455C148.72 92.1597 148.576 91.6093 148.576 90.9945C148.576 90.3721 148.72 89.8218 149.009 89.3435C149.297 88.8578 149.684 88.4782 150.17 88.205C150.656 87.9241 151.199 87.7837 151.798 87.7837C152.405 87.7837 152.948 87.9241 153.426 88.205C153.912 88.4782 154.295 88.8578 154.576 89.3435C154.865 89.8218 155.009 90.3721 155.009 90.9945C155.009 91.6169 154.865 92.171 154.576 92.6568C154.288 93.1426 153.901 93.526 153.415 93.8068C152.929 94.0801 152.39 94.2167 151.798 94.2167ZM151.798 93.0212C152.163 93.0212 152.485 92.9339 152.766 92.7593C153.047 92.5847 153.267 92.3456 153.426 92.042C153.593 91.7308 153.677 91.3816 153.677 90.9945C153.677 90.6074 153.593 90.262 153.426 89.9584C153.267 89.6548 153.047 89.4157 152.766 89.2411C152.485 89.0665 152.163 88.9792 151.798 88.9792C151.441 88.9792 151.119 89.0665 150.83 89.2411C150.55 89.4157 150.326 89.6548 150.159 89.9584C149.999 90.262 149.92 90.6074 149.92 90.9945C149.92 91.3816 149.999 91.7308 150.159 92.042C150.326 92.3456 150.55 92.5847 150.83 92.7593C151.119 92.9339 151.441 93.0212 151.798 93.0212ZM156.265 94.0801V87.9203H157.495V89.1272L157.347 88.9678C157.499 88.5807 157.741 88.2885 158.075 88.0911C158.409 87.8862 158.797 87.7837 159.237 87.7837C159.692 87.7837 160.095 87.8824 160.444 88.0797C160.793 88.2771 161.066 88.5503 161.263 88.8995C161.461 89.2487 161.56 89.651 161.56 90.1064V94.0801H160.284V90.448C160.284 90.1368 160.227 89.8749 160.114 89.6624C160 89.4422 159.836 89.2752 159.624 89.1614C159.419 89.0399 159.184 88.9792 158.918 88.9792C158.652 88.9792 158.413 89.0399 158.201 89.1614C157.996 89.2752 157.836 89.4422 157.722 89.6624C157.609 89.8825 157.552 90.1444 157.552 90.448V94.0801H156.265ZM165.908 96.585C165.46 96.585 165.047 96.5129 164.667 96.3686C164.288 96.2244 163.961 96.0233 163.688 95.7652C163.415 95.5147 163.21 95.2187 163.073 94.8771L164.257 94.3875C164.364 94.6759 164.557 94.915 164.838 95.1048C165.126 95.2946 165.479 95.3895 165.897 95.3895C166.223 95.3895 166.515 95.3249 166.774 95.1959C167.032 95.0744 167.237 94.8923 167.388 94.6494C167.54 94.4141 167.616 94.1294 167.616 93.7954V92.4064L167.844 92.6682C167.631 93.0629 167.335 93.3628 166.956 93.5677C166.584 93.7727 166.163 93.8751 165.692 93.8751C165.123 93.8751 164.61 93.7423 164.155 93.4766C163.699 93.211 163.339 92.8466 163.073 92.3836C162.815 91.9206 162.686 91.4006 162.686 90.8237C162.686 90.2392 162.815 89.7193 163.073 89.2638C163.339 88.8084 163.696 88.4479 164.143 88.1822C164.591 87.9165 165.104 87.7837 165.681 87.7837C166.151 87.7837 166.569 87.8862 166.933 88.0911C167.305 88.2885 167.609 88.5769 167.844 88.9564L167.673 89.2752V87.9203H168.891V93.7954C168.891 94.3268 168.762 94.8012 168.504 95.2187C168.254 95.6437 167.905 95.9777 167.457 96.2206C167.009 96.4635 166.493 96.585 165.908 96.585ZM165.84 92.6796C166.181 92.6796 166.485 92.5999 166.751 92.4405C167.016 92.2735 167.225 92.0534 167.377 91.7801C167.536 91.4993 167.616 91.1843 167.616 90.8351C167.616 90.4859 167.536 90.1709 167.377 89.8901C167.218 89.6092 167.005 89.3891 166.739 89.2297C166.474 89.0627 166.174 88.9792 165.84 88.9792C165.491 88.9792 165.18 89.0627 164.906 89.2297C164.633 89.3891 164.417 89.6092 164.257 89.8901C164.105 90.1633 164.03 90.4783 164.03 90.8351C164.03 91.1767 164.105 91.4879 164.257 91.7687C164.417 92.0496 164.633 92.2735 164.906 92.4405C165.18 92.5999 165.491 92.6796 165.84 92.6796ZM173.289 94.2167C172.675 94.2167 172.128 94.0763 171.65 93.7954C171.179 93.507 170.811 93.1199 170.545 92.6341C170.28 92.1407 170.147 91.5904 170.147 90.9831C170.147 90.3607 170.28 89.8104 170.545 89.3322C170.819 88.854 171.183 88.4782 171.638 88.205C172.094 87.9241 172.61 87.7837 173.187 87.7837C173.65 87.7837 174.064 87.8634 174.428 88.0228C174.792 88.1822 175.1 88.4023 175.35 88.6832C175.601 88.9564 175.791 89.2714 175.92 89.6282C176.056 89.985 176.124 90.3645 176.124 90.7668C176.124 90.8655 176.121 90.9679 176.113 91.0742C176.106 91.1805 176.09 91.2792 176.068 91.3702H171.16V90.3455H175.339L174.724 90.8123C174.8 90.4404 174.773 90.1102 174.644 89.8218C174.523 89.5257 174.333 89.2942 174.075 89.1272C173.825 88.9526 173.529 88.8653 173.187 88.8653C172.845 88.8653 172.542 88.9526 172.276 89.1272C172.01 89.2942 171.805 89.5371 171.661 89.8559C171.517 90.1671 171.46 90.5467 171.49 90.9945C171.452 91.412 171.509 91.7763 171.661 92.0875C171.821 92.3988 172.041 92.6417 172.322 92.8162C172.61 92.9908 172.936 93.0781 173.301 93.0781C173.673 93.0781 173.988 92.9946 174.246 92.8276C174.511 92.6606 174.72 92.4443 174.872 92.1786L175.92 92.691C175.798 92.9794 175.608 93.2413 175.35 93.4766C175.1 93.7043 174.796 93.8865 174.439 94.0231C174.09 94.1522 173.707 94.2167 173.289 94.2167ZM179.657 94.2167C179.027 94.2167 178.473 94.0611 177.995 93.7499C177.524 93.4387 177.194 93.0212 177.004 92.4974L177.995 92.0306C178.162 92.3798 178.39 92.6568 178.678 92.8618C178.974 93.0667 179.301 93.1692 179.657 93.1692C179.961 93.1692 180.208 93.1009 180.397 92.9643C180.587 92.8276 180.682 92.6417 180.682 92.4064C180.682 92.2545 180.64 92.1331 180.557 92.042C180.473 91.9433 180.367 91.8636 180.238 91.8029C180.117 91.7422 179.991 91.6966 179.862 91.6663L178.894 91.393C178.363 91.2412 177.965 91.0135 177.699 90.7099C177.441 90.3986 177.312 90.0381 177.312 89.6282C177.312 89.2563 177.407 88.9337 177.596 88.6604C177.786 88.3795 178.048 88.1632 178.382 88.0114C178.716 87.8596 179.092 87.7837 179.509 87.7837C180.071 87.7837 180.572 87.9241 181.012 88.205C181.452 88.4782 181.764 88.8615 181.946 89.3549L180.955 89.8218C180.834 89.5257 180.64 89.2904 180.375 89.1158C180.117 88.9412 179.824 88.854 179.498 88.854C179.217 88.854 178.993 88.9223 178.826 89.0589C178.659 89.1879 178.576 89.3587 178.576 89.5713C178.576 89.7155 178.614 89.8369 178.69 89.9356C178.765 90.0267 178.864 90.1026 178.986 90.1633C179.107 90.2165 179.232 90.262 179.361 90.3L180.363 90.596C180.872 90.7402 181.263 90.9679 181.536 91.2792C181.809 91.5828 181.946 91.9471 181.946 92.3722C181.946 92.7365 181.847 93.0591 181.65 93.34C181.46 93.6133 181.194 93.8296 180.853 93.989C180.511 94.1408 180.113 94.2167 179.657 94.2167ZM185.871 94.1484C185.226 94.1484 184.725 93.9662 184.368 93.6019C184.011 93.2375 183.833 92.7252 183.833 92.0648V89.0817H182.751V87.9203H182.922C183.21 87.9203 183.434 87.8368 183.594 87.6698C183.753 87.5028 183.833 87.2751 183.833 86.9867V86.5085H185.119V87.9203H186.52V89.0817H185.119V92.0078C185.119 92.2204 185.153 92.4026 185.222 92.5544C185.29 92.6986 185.4 92.8124 185.552 92.8959C185.704 92.9719 185.901 93.0098 186.144 93.0098C186.205 93.0098 186.273 93.006 186.349 92.9984C186.425 92.9908 186.497 92.9832 186.565 92.9756V94.0801C186.459 94.0953 186.341 94.1104 186.212 94.1256C186.083 94.1408 185.969 94.1484 185.871 94.1484ZM192.088 94.2167C191.458 94.2167 190.904 94.0611 190.426 93.7499C189.955 93.4387 189.625 93.0212 189.435 92.4974L190.426 92.0306C190.593 92.3798 190.821 92.6568 191.109 92.8618C191.405 93.0667 191.732 93.1692 192.088 93.1692C192.392 93.1692 192.639 93.1009 192.828 92.9643C193.018 92.8276 193.113 92.6417 193.113 92.4064C193.113 92.2545 193.071 92.1331 192.988 92.042C192.904 91.9433 192.798 91.8636 192.669 91.8029C192.548 91.7422 192.422 91.6966 192.293 91.6663L191.326 91.393C190.794 91.2412 190.396 91.0135 190.13 90.7099C189.872 90.3986 189.743 90.0381 189.743 89.6282C189.743 89.2563 189.838 88.9337 190.028 88.6604C190.217 88.3795 190.479 88.1632 190.813 88.0114C191.147 87.8596 191.523 87.7837 191.94 87.7837C192.502 87.7837 193.003 87.9241 193.443 88.205C193.884 88.4782 194.195 88.8615 194.377 89.3549L193.386 89.8218C193.265 89.5257 193.071 89.2904 192.806 89.1158C192.548 88.9412 192.255 88.854 191.929 88.854C191.648 88.854 191.424 88.9223 191.257 89.0589C191.09 89.1879 191.007 89.3587 191.007 89.5713C191.007 89.7155 191.045 89.8369 191.121 89.9356C191.196 90.0267 191.295 90.1026 191.417 90.1633C191.538 90.2165 191.663 90.262 191.792 90.3L192.794 90.596C193.303 90.7402 193.694 90.9679 193.967 91.2792C194.24 91.5828 194.377 91.9471 194.377 92.3722C194.377 92.7365 194.278 93.0591 194.081 93.34C193.891 93.6133 193.625 93.8296 193.284 93.989C192.942 94.1408 192.544 94.2167 192.088 94.2167ZM197.835 94.2167C197.372 94.2167 196.966 94.1142 196.617 93.9093C196.268 93.6968 195.994 93.4045 195.797 93.0326C195.607 92.653 195.512 92.2166 195.512 91.7232V87.9203H196.799V91.6093C196.799 91.8902 196.856 92.1369 196.97 92.3494C197.084 92.562 197.243 92.729 197.448 92.8504C197.653 92.9643 197.888 93.0212 198.154 93.0212C198.427 93.0212 198.666 92.9605 198.871 92.839C199.076 92.7176 199.236 92.5468 199.349 92.3267C199.471 92.1065 199.532 91.8484 199.532 91.5524V87.9203H200.807V94.0801H199.588V92.8732L199.725 93.0326C199.581 93.4121 199.342 93.7043 199.008 93.9093C198.674 94.1142 198.283 94.2167 197.835 94.2167ZM205.6 94.2167C205.121 94.2167 204.685 94.118 204.29 93.9207C203.903 93.7233 203.603 93.4387 203.391 93.0667L203.539 92.8276V94.0801H202.309V85.461H203.596V89.1955L203.391 88.8995C203.618 88.5503 203.922 88.2771 204.302 88.0797C204.681 87.8824 205.114 87.7837 205.6 87.7837C206.184 87.7837 206.708 87.9241 207.171 88.205C207.641 88.4858 208.01 88.8691 208.275 89.3549C208.548 89.8407 208.685 90.3873 208.685 90.9945C208.685 91.6018 208.548 92.1483 208.275 92.6341C208.01 93.1199 207.645 93.507 207.182 93.7954C206.719 94.0763 206.192 94.2167 205.6 94.2167ZM205.474 93.0212C205.839 93.0212 206.161 92.9339 206.442 92.7593C206.723 92.5847 206.943 92.3456 207.102 92.042C207.269 91.7308 207.353 91.3816 207.353 90.9945C207.353 90.6074 207.269 90.262 207.102 89.9584C206.943 89.6548 206.723 89.4157 206.442 89.2411C206.161 89.0665 205.839 88.9792 205.474 88.9792C205.118 88.9792 204.795 89.0665 204.506 89.2411C204.226 89.4157 204.002 89.6548 203.835 89.9584C203.675 90.262 203.596 90.6074 203.596 90.9945C203.596 91.3816 203.675 91.7308 203.835 92.042C204.002 92.3456 204.226 92.5847 204.506 92.7593C204.795 92.9339 205.118 93.0212 205.474 93.0212ZM212.214 94.2167C211.584 94.2167 211.03 94.0611 210.551 93.7499C210.081 93.4387 209.751 93.0212 209.561 92.4974L210.551 92.0306C210.718 92.3798 210.946 92.6568 211.235 92.8618C211.531 93.0667 211.857 93.1692 212.214 93.1692C212.517 93.1692 212.764 93.1009 212.954 92.9643C213.144 92.8276 213.239 92.6417 213.239 92.4064C213.239 92.2545 213.197 92.1331 213.113 92.042C213.03 91.9433 212.924 91.8636 212.795 91.8029C212.673 91.7422 212.548 91.6966 212.419 91.6663L211.451 91.393C210.92 91.2412 210.521 91.0135 210.255 90.7099C209.997 90.3986 209.868 90.0381 209.868 89.6282C209.868 89.2563 209.963 88.9337 210.153 88.6604C210.343 88.3795 210.605 88.1632 210.939 88.0114C211.273 87.8596 211.648 87.7837 212.066 87.7837C212.628 87.7837 213.128 87.9241 213.569 88.205C214.009 88.4782 214.32 88.8615 214.502 89.3549L213.512 89.8218C213.39 89.5257 213.197 89.2904 212.931 89.1158C212.673 88.9412 212.381 88.854 212.054 88.854C211.774 88.854 211.55 88.9223 211.383 89.0589C211.216 89.1879 211.132 89.3587 211.132 89.5713C211.132 89.7155 211.17 89.8369 211.246 89.9356C211.322 90.0267 211.421 90.1026 211.542 90.1633C211.664 90.2165 211.789 90.262 211.918 90.3L212.92 90.596C213.428 90.7402 213.819 90.9679 214.092 91.2792C214.366 91.5828 214.502 91.9471 214.502 92.3722C214.502 92.7365 214.404 93.0591 214.206 93.34C214.017 93.6133 213.751 93.8296 213.409 93.989C213.068 94.1408 212.669 94.2167 212.214 94.2167ZM218.427 94.1484C217.782 94.1484 217.281 93.9662 216.924 93.6019C216.568 93.2375 216.389 92.7252 216.389 92.0648V89.0817H215.308V87.9203H215.478C215.767 87.9203 215.991 87.8368 216.15 87.6698C216.31 87.5028 216.389 87.2751 216.389 86.9867V86.5085H217.676V87.9203H219.076V89.0817H217.676V92.0078C217.676 92.2204 217.71 92.4026 217.778 92.5544C217.847 92.6986 217.957 92.8124 218.109 92.8959C218.26 92.9719 218.458 93.0098 218.701 93.0098C218.761 93.0098 218.83 93.006 218.906 92.9984C218.981 92.9908 219.054 92.9832 219.122 92.9756V94.0801C219.016 94.0953 218.898 94.1104 218.769 94.1256C218.64 94.1408 218.526 94.1484 218.427 94.1484ZM220.377 94.0801V87.9203H221.607V89.1614L221.493 88.9792C221.63 88.5769 221.85 88.2885 222.154 88.1139C222.457 87.9317 222.822 87.8406 223.247 87.8406H223.622V89.0134H223.087C222.662 89.0134 222.317 89.1462 222.051 89.4119C221.793 89.6699 221.664 90.0419 221.664 90.5277V94.0801H220.377ZM224.503 94.0801V87.9203H225.789V94.0801H224.503ZM224.503 87.0778V85.5976H225.789V87.0778H224.503ZM227.293 94.0801V87.9203H228.523V89.1272L228.375 88.9678C228.527 88.5807 228.77 88.2885 229.104 88.0911C229.438 87.8862 229.825 87.7837 230.265 87.7837C230.721 87.7837 231.123 87.8824 231.472 88.0797C231.821 88.2771 232.095 88.5503 232.292 88.8995C232.489 89.2487 232.588 89.651 232.588 90.1064V94.0801H231.313V90.448C231.313 90.1368 231.256 89.8749 231.142 89.6624C231.028 89.4422 230.865 89.2752 230.652 89.1614C230.447 89.0399 230.212 88.9792 229.946 88.9792C229.681 88.9792 229.442 89.0399 229.229 89.1614C229.024 89.2752 228.865 89.4422 228.751 89.6624C228.637 89.8825 228.58 90.1444 228.58 90.448V94.0801H227.293ZM236.937 96.585C236.489 96.585 236.075 96.5129 235.696 96.3686C235.316 96.2244 234.99 96.0233 234.716 95.7652C234.443 95.5147 234.238 95.2187 234.102 94.8771L235.286 94.3875C235.392 94.6759 235.585 94.915 235.866 95.1048C236.155 95.2946 236.508 95.3895 236.925 95.3895C237.252 95.3895 237.544 95.3249 237.802 95.1959C238.06 95.0744 238.265 94.8923 238.417 94.6494C238.569 94.4141 238.644 94.1294 238.644 93.7954V92.4064L238.872 92.6682C238.66 93.0629 238.364 93.3628 237.984 93.5677C237.612 93.7727 237.191 93.8751 236.72 93.8751C236.151 93.8751 235.639 93.7423 235.183 93.4766C234.728 93.211 234.367 92.8466 234.102 92.3836C233.843 91.9206 233.714 91.4006 233.714 90.8237C233.714 90.2392 233.843 89.7193 234.102 89.2638C234.367 88.8084 234.724 88.4479 235.172 88.1822C235.62 87.9165 236.132 87.7837 236.709 87.7837C237.179 87.7837 237.597 87.8862 237.961 88.0911C238.333 88.2885 238.637 88.5769 238.872 88.9564L238.701 89.2752V87.9203H239.92V93.7954C239.92 94.3268 239.791 94.8012 239.533 95.2187C239.282 95.6437 238.933 95.9777 238.485 96.2206C238.037 96.4635 237.521 96.585 236.937 96.585ZM236.868 92.6796C237.21 92.6796 237.513 92.5999 237.779 92.4405C238.045 92.2735 238.254 92.0534 238.405 91.7801C238.565 91.4993 238.644 91.1843 238.644 90.8351C238.644 90.4859 238.565 90.1709 238.405 89.8901C238.246 89.6092 238.033 89.3891 237.768 89.2297C237.502 89.0627 237.202 88.9792 236.868 88.9792C236.519 88.9792 236.208 89.0627 235.935 89.2297C235.661 89.3891 235.445 89.6092 235.286 89.8901C235.134 90.1633 235.058 90.4783 235.058 90.8351C235.058 91.1767 235.134 91.4879 235.286 91.7687C235.445 92.0496 235.661 92.2735 235.935 92.4405C236.208 92.5999 236.519 92.6796 236.868 92.6796ZM30.2547 114.08L28.137 107.92H29.5033L31.1201 112.828H30.6419L32.2928 107.92H33.4656L35.1051 112.828H34.6269L36.2551 107.92H37.6214L35.4922 114.08H34.3309L32.6685 109.059H33.0898L31.4275 114.08H30.2547ZM38.5035 114.08V107.92H39.7901V114.08H38.5035ZM38.5035 107.078V105.598H39.7901V107.078H38.5035ZM43.9586 114.148C43.3134 114.148 42.8125 113.966 42.4557 113.602C42.0989 113.238 41.9206 112.725 41.9206 112.065V109.082H40.8389V107.92H41.0097C41.2981 107.92 41.5221 107.837 41.6815 107.67C41.8409 107.503 41.9206 107.275 41.9206 106.987V106.508H43.2072V107.92H44.6076V109.082H43.2072V112.008C43.2072 112.22 43.2413 112.403 43.3096 112.554C43.378 112.699 43.488 112.812 43.6398 112.896C43.7916 112.972 43.989 113.01 44.2319 113.01C44.2926 113.01 44.3609 113.006 44.4368 112.998C44.5127 112.991 44.5849 112.983 44.6532 112.976V114.08C44.5469 114.095 44.4292 114.11 44.3002 114.126C44.1712 114.141 44.0573 114.148 43.9586 114.148ZM45.9087 114.08V105.461H47.1953V109.127L46.9904 108.968C47.1422 108.581 47.3851 108.288 47.7191 108.091C48.0531 107.886 48.4402 107.784 48.8804 107.784C49.3359 107.784 49.7382 107.882 50.0873 108.08C50.4365 108.277 50.7098 108.55 50.9071 108.899C51.1045 109.249 51.2032 109.647 51.2032 110.095V114.08H49.9279V110.448C49.9279 110.137 49.8672 109.875 49.7458 109.662C49.6319 109.442 49.4725 109.275 49.2676 109.161C49.0626 109.04 48.8273 108.979 48.5616 108.979C48.3036 108.979 48.0683 109.04 47.8557 109.161C47.6508 109.275 47.4876 109.442 47.3661 109.662C47.2523 109.882 47.1953 110.144 47.1953 110.448V114.08H45.9087ZM55.5519 114.217C54.9598 114.217 54.4171 114.076 53.9237 113.795C53.4379 113.515 53.0508 113.131 52.7623 112.645C52.4739 112.16 52.3297 111.609 52.3297 110.995C52.3297 110.372 52.4739 109.822 52.7623 109.344C53.0508 108.858 53.4379 108.478 53.9237 108.205C54.4095 107.924 54.9522 107.784 55.5519 107.784C56.1591 107.784 56.7018 107.924 57.18 108.205C57.6658 108.478 58.0492 108.858 58.33 109.344C58.6185 109.822 58.7627 110.372 58.7627 110.995C58.7627 111.617 58.6185 112.171 58.33 112.657C58.0416 113.143 57.6545 113.526 57.1687 113.807C56.6829 114.08 56.1439 114.217 55.5519 114.217ZM55.5519 113.021C55.9162 113.021 56.2388 112.934 56.5197 112.759C56.8005 112.585 57.0206 112.346 57.18 112.042C57.347 111.731 57.4305 111.382 57.4305 110.995C57.4305 110.607 57.347 110.262 57.18 109.958C57.0206 109.655 56.8005 109.416 56.5197 109.241C56.2388 109.066 55.9162 108.979 55.5519 108.979C55.1951 108.979 54.8725 109.066 54.5841 109.241C54.3032 109.416 54.0793 109.655 53.9123 109.958C53.7529 110.262 53.6732 110.607 53.6732 110.995C53.6732 111.382 53.7529 111.731 53.9123 112.042C54.0793 112.346 54.3032 112.585 54.5841 112.759C54.8725 112.934 55.1951 113.021 55.5519 113.021ZM62.2163 114.217C61.7532 114.217 61.3471 114.114 60.998 113.909C60.6488 113.697 60.3755 113.405 60.1782 113.033C59.9884 112.653 59.8935 112.217 59.8935 111.723V107.92H61.1801V111.609C61.1801 111.89 61.2371 112.137 61.3509 112.349C61.4648 112.562 61.6242 112.729 61.8291 112.85C62.0341 112.964 62.2694 113.021 62.5351 113.021C62.8083 113.021 63.0474 112.96 63.2524 112.839C63.4573 112.718 63.6167 112.547 63.7306 112.327C63.852 112.107 63.9128 111.848 63.9128 111.552V107.92H65.188V114.08H63.9697V112.873L64.1063 113.033C63.9621 113.412 63.723 113.704 63.389 113.909C63.055 114.114 62.6641 114.217 62.2163 114.217ZM69.3545 114.148C68.7093 114.148 68.2083 113.966 67.8516 113.602C67.4948 113.238 67.3164 112.725 67.3164 112.065V109.082H66.2348V107.92H66.4055C66.694 107.92 66.9179 107.837 67.0773 107.67C67.2367 107.503 67.3164 107.275 67.3164 106.987V106.508H68.603V107.92H70.0035V109.082H68.603V112.008C68.603 112.22 68.6372 112.403 68.7055 112.554C68.7738 112.699 68.8839 112.812 69.0357 112.896C69.1875 112.972 69.3849 113.01 69.6278 113.01C69.6885 113.01 69.7568 113.006 69.8327 112.998C69.9086 112.991 69.9807 112.983 70.049 112.976V114.08C69.9428 114.095 69.8251 114.11 69.6961 114.126C69.567 114.141 69.4532 114.148 69.3545 114.148ZM73.2949 114.08V107.92H74.5246V109.161L74.4107 108.979C74.5473 108.577 74.7675 108.288 75.0711 108.114C75.3747 107.932 75.7391 107.841 76.1641 107.841H76.5399V109.013H76.0047C75.5797 109.013 75.2343 109.146 74.9686 109.412C74.7105 109.67 74.5815 110.042 74.5815 110.528V114.08H73.2949ZM80.3121 114.217C79.6972 114.217 79.1507 114.076 78.6725 113.795C78.2019 113.507 77.8337 113.12 77.5681 112.634C77.3024 112.141 77.1696 111.59 77.1696 110.983C77.1696 110.361 77.3024 109.81 77.5681 109.332C77.8413 108.854 78.2057 108.478 78.6611 108.205C79.1166 107.924 79.6327 107.784 80.2096 107.784C80.6726 107.784 81.0863 107.863 81.4507 108.023C81.815 108.182 82.1224 108.402 82.3729 108.683C82.6234 108.956 82.8132 109.271 82.9422 109.628C83.0788 109.985 83.1472 110.364 83.1472 110.767C83.1472 110.865 83.1434 110.968 83.1358 111.074C83.1282 111.18 83.113 111.279 83.0902 111.37H78.1829V110.346H82.3615L81.7467 110.812C81.8226 110.44 81.796 110.11 81.667 109.822C81.5455 109.526 81.3558 109.294 81.0977 109.127C80.8472 108.953 80.5512 108.865 80.2096 108.865C79.868 108.865 79.5644 108.953 79.2987 109.127C79.0331 109.294 78.8281 109.537 78.6839 109.856C78.5397 110.167 78.4827 110.547 78.5131 110.995C78.4752 111.412 78.5321 111.776 78.6839 112.088C78.8433 112.399 79.0634 112.642 79.3443 112.816C79.6327 112.991 79.9591 113.078 80.3235 113.078C80.6954 113.078 81.0104 112.995 81.2685 112.828C81.5342 112.661 81.7429 112.444 81.8947 112.179L82.9422 112.691C82.8208 112.979 82.631 113.241 82.3729 113.477C82.1224 113.704 81.8188 113.887 81.462 114.023C81.1129 114.152 80.7296 114.217 80.3121 114.217ZM84.4028 116.357V107.92H85.6325V109.196L85.4845 108.899C85.7122 108.55 86.0158 108.277 86.3953 108.08C86.7749 107.882 87.2075 107.784 87.6933 107.784C88.2778 107.784 88.8016 107.924 89.2646 108.205C89.7352 108.486 90.1033 108.869 90.369 109.355C90.6423 109.841 90.7789 110.387 90.7789 110.995C90.7789 111.602 90.6423 112.148 90.369 112.634C90.1033 113.12 89.739 113.507 89.276 113.795C88.8129 114.076 88.2854 114.217 87.6933 114.217C87.2151 114.217 86.7787 114.118 86.384 113.921C85.9968 113.723 85.697 113.439 85.4845 113.067L85.6894 112.828V116.357H84.4028ZM87.5681 113.021C87.9324 113.021 88.255 112.934 88.5359 112.759C88.8167 112.585 89.0369 112.346 89.1963 112.042C89.3633 111.731 89.4468 111.382 89.4468 110.995C89.4468 110.607 89.3633 110.262 89.1963 109.958C89.0369 109.655 88.8167 109.416 88.5359 109.241C88.255 109.066 87.9324 108.979 87.5681 108.979C87.2113 108.979 86.8887 109.066 86.6003 109.241C86.3194 109.416 86.0955 109.655 85.9285 109.958C85.7691 110.262 85.6894 110.607 85.6894 110.995C85.6894 111.382 85.7691 111.731 85.9285 112.042C86.0955 112.346 86.3194 112.585 86.6003 112.759C86.8887 112.934 87.2113 113.021 87.5681 113.021ZM94.9225 114.217C94.3076 114.217 93.7611 114.076 93.2829 113.795C92.8123 113.507 92.4442 113.12 92.1785 112.634C91.9128 112.141 91.78 111.59 91.78 110.983C91.78 110.361 91.9128 109.81 92.1785 109.332C92.4517 108.854 92.8161 108.478 93.2715 108.205C93.727 107.924 94.2431 107.784 94.82 107.784C95.283 107.784 95.6967 107.863 96.0611 108.023C96.4254 108.182 96.7328 108.402 96.9833 108.683C97.2338 108.956 97.4236 109.271 97.5526 109.628C97.6892 109.985 97.7576 110.364 97.7576 110.767C97.7576 110.865 97.7538 110.968 97.7462 111.074C97.7386 111.18 97.7234 111.279 97.7006 111.37H92.7933V110.346H96.9719L96.3571 110.812C96.433 110.44 96.4064 110.11 96.2774 109.822C96.156 109.526 95.9662 109.294 95.7081 109.127C95.4576 108.953 95.1616 108.865 94.82 108.865C94.4784 108.865 94.1748 108.953 93.9091 109.127C93.6435 109.294 93.4385 109.537 93.2943 109.856C93.1501 110.167 93.0931 110.547 93.1235 110.995C93.0856 111.412 93.1425 111.776 93.2943 112.088C93.4537 112.399 93.6738 112.642 93.9547 112.816C94.2431 112.991 94.5695 113.078 94.9339 113.078C95.3058 113.078 95.6208 112.995 95.8789 112.828C96.1446 112.661 96.3533 112.444 96.5051 112.179L97.5526 112.691C97.4312 112.979 97.2414 113.241 96.9833 113.477C96.7328 113.704 96.4292 113.887 96.0725 114.023C95.7233 114.152 95.34 114.217 94.9225 114.217ZM100.802 114.217C100.385 114.217 100.017 114.145 99.6977 114C99.3865 113.849 99.1436 113.644 98.969 113.386C98.7944 113.12 98.7071 112.809 98.7071 112.452C98.7071 112.118 98.7792 111.818 98.9235 111.552C99.0753 111.287 99.3068 111.063 99.618 110.881C99.9292 110.698 100.32 110.569 100.791 110.494L102.931 110.141V111.154L101.041 111.484C100.7 111.545 100.449 111.655 100.29 111.814C100.13 111.966 100.051 112.163 100.051 112.406C100.051 112.642 100.138 112.835 100.313 112.987C100.495 113.131 100.726 113.203 101.007 113.203C101.356 113.203 101.66 113.127 101.918 112.976C102.184 112.824 102.389 112.623 102.533 112.372C102.677 112.114 102.749 111.829 102.749 111.518V109.936C102.749 109.632 102.635 109.385 102.408 109.196C102.187 108.998 101.891 108.899 101.519 108.899C101.178 108.899 100.878 108.991 100.62 109.173C100.369 109.347 100.184 109.575 100.062 109.856L98.9918 109.321C99.1056 109.017 99.2916 108.751 99.5497 108.524C99.8078 108.288 100.108 108.106 100.449 107.977C100.798 107.848 101.166 107.784 101.554 107.784C102.039 107.784 102.468 107.875 102.84 108.057C103.22 108.239 103.512 108.493 103.717 108.82C103.929 109.139 104.036 109.511 104.036 109.936V114.08H102.806V112.964L103.068 112.998C102.924 113.249 102.738 113.465 102.51 113.647C102.29 113.83 102.036 113.97 101.747 114.069C101.466 114.167 101.151 114.217 100.802 114.217ZM108.093 114.148C107.448 114.148 106.947 113.966 106.59 113.602C106.234 113.238 106.055 112.725 106.055 112.065V109.082H104.973V107.92H105.144C105.433 107.92 105.657 107.837 105.816 107.67C105.975 107.503 106.055 107.275 106.055 106.987V106.508H107.342V107.92H108.742V109.082H107.342V112.008C107.342 112.22 107.376 112.403 107.444 112.554C107.513 112.699 107.623 112.812 107.774 112.896C107.926 112.972 108.124 113.01 108.366 113.01C108.427 113.01 108.495 113.006 108.571 112.998C108.647 112.991 108.719 112.983 108.788 112.976V114.08C108.681 114.095 108.564 114.11 108.435 114.126C108.306 114.141 108.192 114.148 108.093 114.148ZM110.043 114.08V107.92H111.33V114.08H110.043ZM110.043 107.078V105.598H111.33V107.078H110.043ZM112.834 114.08V107.92H114.064V109.127L113.916 108.968C114.068 108.581 114.311 108.288 114.645 108.091C114.979 107.886 115.366 107.784 115.806 107.784C116.261 107.784 116.664 107.882 117.013 108.08C117.362 108.277 117.635 108.55 117.833 108.899C118.03 109.249 118.129 109.651 118.129 110.106V114.08H116.853V110.448C116.853 110.137 116.796 109.875 116.683 109.662C116.569 109.442 116.406 109.275 116.193 109.161C115.988 109.04 115.753 108.979 115.487 108.979C115.221 108.979 114.982 109.04 114.77 109.161C114.565 109.275 114.405 109.442 114.292 109.662C114.178 109.882 114.121 110.144 114.121 110.448V114.08H112.834ZM122.477 116.585C122.029 116.585 121.616 116.513 121.236 116.369C120.857 116.224 120.53 116.023 120.257 115.765C119.984 115.515 119.779 115.219 119.642 114.877L120.826 114.387C120.933 114.676 121.126 114.915 121.407 115.105C121.695 115.295 122.048 115.389 122.466 115.389C122.792 115.389 123.085 115.325 123.343 115.196C123.601 115.074 123.806 114.892 123.957 114.649C124.109 114.414 124.185 114.129 124.185 113.795V112.406L124.413 112.668C124.2 113.063 123.904 113.363 123.525 113.568C123.153 113.773 122.732 113.875 122.261 113.875C121.692 113.875 121.179 113.742 120.724 113.477C120.268 113.211 119.908 112.847 119.642 112.384C119.384 111.921 119.255 111.401 119.255 110.824C119.255 110.239 119.384 109.719 119.642 109.264C119.908 108.808 120.265 108.448 120.712 108.182C121.16 107.917 121.673 107.784 122.25 107.784C122.72 107.784 123.138 107.886 123.502 108.091C123.874 108.288 124.178 108.577 124.413 108.956L124.242 109.275V107.92H125.46V113.795C125.46 114.327 125.331 114.801 125.073 115.219C124.823 115.644 124.474 115.978 124.026 116.221C123.578 116.464 123.062 116.585 122.477 116.585ZM122.409 112.68C122.751 112.68 123.054 112.6 123.32 112.441C123.586 112.274 123.794 112.053 123.946 111.78C124.105 111.499 124.185 111.184 124.185 110.835C124.185 110.486 124.105 110.171 123.946 109.89C123.787 109.609 123.574 109.389 123.308 109.23C123.043 109.063 122.743 108.979 122.409 108.979C122.06 108.979 121.749 109.063 121.475 109.23C121.202 109.389 120.986 109.609 120.826 109.89C120.675 110.163 120.599 110.478 120.599 110.835C120.599 111.177 120.675 111.488 120.826 111.769C120.986 112.05 121.202 112.274 121.475 112.441C121.749 112.6 122.06 112.68 122.409 112.68ZM131.883 114.217C131.268 114.217 130.722 114.076 130.243 113.795C129.773 113.507 129.397 113.12 129.116 112.634C128.843 112.148 128.706 111.598 128.706 110.983C128.706 110.376 128.843 109.829 129.116 109.344C129.389 108.858 129.765 108.478 130.243 108.205C130.722 107.924 131.268 107.784 131.883 107.784C132.3 107.784 132.691 107.86 133.056 108.011C133.42 108.156 133.735 108.357 134.001 108.615C134.274 108.873 134.475 109.173 134.604 109.514L133.477 110.038C133.348 109.719 133.139 109.465 132.851 109.275C132.57 109.078 132.247 108.979 131.883 108.979C131.534 108.979 131.219 109.066 130.938 109.241C130.665 109.408 130.448 109.647 130.289 109.958C130.13 110.262 130.05 110.607 130.05 110.995C130.05 111.382 130.13 111.731 130.289 112.042C130.448 112.346 130.665 112.585 130.938 112.759C131.219 112.934 131.534 113.021 131.883 113.021C132.255 113.021 132.577 112.926 132.851 112.737C133.132 112.539 133.34 112.277 133.477 111.951L134.604 112.486C134.483 112.812 134.285 113.108 134.012 113.374C133.746 113.632 133.431 113.837 133.067 113.989C132.703 114.141 132.308 114.217 131.883 114.217ZM135.862 114.08V105.461H137.148V109.127L136.943 108.968C137.095 108.581 137.338 108.288 137.672 108.091C138.006 107.886 138.393 107.784 138.833 107.784C139.289 107.784 139.691 107.882 140.04 108.08C140.389 108.277 140.663 108.55 140.86 108.899C141.057 109.249 141.156 109.647 141.156 110.095V114.08H139.881V110.448C139.881 110.137 139.82 109.875 139.699 109.662C139.585 109.442 139.425 109.275 139.221 109.161C139.016 109.04 138.78 108.979 138.515 108.979C138.257 108.979 138.021 109.04 137.809 109.161C137.604 109.275 137.441 109.442 137.319 109.662C137.205 109.882 137.148 110.144 137.148 110.448V114.08H135.862ZM144.378 114.217C143.96 114.217 143.592 114.145 143.273 114C142.962 113.849 142.719 113.644 142.544 113.386C142.37 113.12 142.283 112.809 142.283 112.452C142.283 112.118 142.355 111.818 142.499 111.552C142.651 111.287 142.882 111.063 143.193 110.881C143.505 110.698 143.896 110.569 144.366 110.494L146.507 110.141V111.154L144.617 111.484C144.275 111.545 144.025 111.655 143.865 111.814C143.706 111.966 143.626 112.163 143.626 112.406C143.626 112.642 143.713 112.835 143.888 112.987C144.07 113.131 144.302 113.203 144.583 113.203C144.932 113.203 145.235 113.127 145.493 112.976C145.759 112.824 145.964 112.623 146.108 112.372C146.252 112.114 146.325 111.829 146.325 111.518V109.936C146.325 109.632 146.211 109.385 145.983 109.196C145.763 108.998 145.467 108.899 145.095 108.899C144.753 108.899 144.454 108.991 144.195 109.173C143.945 109.347 143.759 109.575 143.638 109.856L142.567 109.321C142.681 109.017 142.867 108.751 143.125 108.524C143.383 108.288 143.683 108.106 144.025 107.977C144.374 107.848 144.742 107.784 145.129 107.784C145.615 107.784 146.044 107.875 146.416 108.057C146.795 108.239 147.087 108.493 147.292 108.82C147.505 109.139 147.611 109.511 147.611 109.936V114.08H146.382V112.964L146.643 112.998C146.499 113.249 146.313 113.465 146.085 113.647C145.865 113.83 145.611 113.97 145.323 114.069C145.042 114.167 144.727 114.217 144.378 114.217ZM149.116 114.08V107.92H150.345V109.161L150.231 108.979C150.368 108.577 150.588 108.288 150.892 108.114C151.195 107.932 151.56 107.841 151.985 107.841H152.361V109.013H151.825C151.4 109.013 151.055 109.146 150.789 109.412C150.531 109.67 150.402 110.042 150.402 110.528V114.08H149.116ZM155.085 114.217C154.668 114.217 154.3 114.145 153.981 114C153.67 113.849 153.427 113.644 153.252 113.386C153.078 113.12 152.99 112.809 152.99 112.452C152.99 112.118 153.062 111.818 153.207 111.552C153.358 111.287 153.59 111.063 153.901 110.881C154.212 110.698 154.603 110.569 155.074 110.494L157.214 110.141V111.154L155.324 111.484C154.983 111.545 154.732 111.655 154.573 111.814C154.413 111.966 154.334 112.163 154.334 112.406C154.334 112.642 154.421 112.835 154.596 112.987C154.778 113.131 155.009 113.203 155.29 113.203C155.639 113.203 155.943 113.127 156.201 112.976C156.467 112.824 156.672 112.623 156.816 112.372C156.96 112.114 157.032 111.829 157.032 111.518V109.936C157.032 109.632 156.918 109.385 156.691 109.196C156.471 108.998 156.174 108.899 155.803 108.899C155.461 108.899 155.161 108.991 154.903 109.173C154.653 109.347 154.467 109.575 154.345 109.856L153.275 109.321C153.389 109.017 153.575 108.751 153.833 108.524C154.091 108.288 154.391 108.106 154.732 107.977C155.081 107.848 155.45 107.784 155.837 107.784C156.322 107.784 156.751 107.875 157.123 108.057C157.503 108.239 157.795 108.493 158 108.82C158.213 109.139 158.319 109.511 158.319 109.936V114.08H157.089V112.964L157.351 112.998C157.207 113.249 157.021 113.465 156.793 113.647C156.573 113.83 156.319 113.97 156.03 114.069C155.749 114.167 155.434 114.217 155.085 114.217ZM162.749 114.217C162.135 114.217 161.588 114.076 161.11 113.795C160.639 113.507 160.263 113.12 159.983 112.634C159.709 112.148 159.573 111.598 159.573 110.983C159.573 110.376 159.709 109.829 159.983 109.344C160.256 108.858 160.632 108.478 161.11 108.205C161.588 107.924 162.135 107.784 162.749 107.784C163.167 107.784 163.558 107.86 163.922 108.011C164.286 108.156 164.601 108.357 164.867 108.615C165.14 108.873 165.342 109.173 165.471 109.514L164.343 110.038C164.214 109.719 164.006 109.465 163.717 109.275C163.436 109.078 163.114 108.979 162.749 108.979C162.4 108.979 162.085 109.066 161.804 109.241C161.531 109.408 161.315 109.647 161.155 109.958C160.996 110.262 160.916 110.607 160.916 110.995C160.916 111.382 160.996 111.731 161.155 112.042C161.315 112.346 161.531 112.585 161.804 112.759C162.085 112.934 162.4 113.021 162.749 113.021C163.121 113.021 163.444 112.926 163.717 112.737C163.998 112.539 164.207 112.277 164.343 111.951L165.471 112.486C165.349 112.812 165.152 113.108 164.879 113.374C164.613 113.632 164.298 113.837 163.933 113.989C163.569 114.141 163.174 114.217 162.749 114.217ZM169.392 114.148C168.747 114.148 168.246 113.966 167.889 113.602C167.533 113.238 167.354 112.725 167.354 112.065V109.082H166.273V107.92H166.443C166.732 107.92 166.956 107.837 167.115 107.67C167.275 107.503 167.354 107.275 167.354 106.987V106.508H168.641V107.92H170.041V109.082H168.641V112.008C168.641 112.22 168.675 112.403 168.743 112.554C168.812 112.699 168.922 112.812 169.074 112.896C169.225 112.972 169.423 113.01 169.666 113.01C169.726 113.01 169.795 113.006 169.871 112.998C169.947 112.991 170.019 112.983 170.087 112.976V114.08C169.981 114.095 169.863 114.11 169.734 114.126C169.605 114.141 169.491 114.148 169.392 114.148ZM174.123 114.217C173.508 114.217 172.962 114.076 172.484 113.795C172.013 113.507 171.645 113.12 171.379 112.634C171.114 112.141 170.981 111.59 170.981 110.983C170.981 110.361 171.114 109.81 171.379 109.332C171.653 108.854 172.017 108.478 172.472 108.205C172.928 107.924 173.444 107.784 174.021 107.784C174.484 107.784 174.898 107.863 175.262 108.023C175.626 108.182 175.934 108.402 176.184 108.683C176.435 108.956 176.624 109.271 176.753 109.628C176.89 109.985 176.958 110.364 176.958 110.767C176.958 110.865 176.955 110.968 176.947 111.074C176.939 111.18 176.924 111.279 176.901 111.37H171.994V110.346H176.173L175.558 110.812C175.634 110.44 175.607 110.11 175.478 109.822C175.357 109.526 175.167 109.294 174.909 109.127C174.658 108.953 174.362 108.865 174.021 108.865C173.679 108.865 173.376 108.953 173.11 109.127C172.844 109.294 172.639 109.537 172.495 109.856C172.351 110.167 172.294 110.547 172.324 110.995C172.286 111.412 172.343 111.776 172.495 112.088C172.655 112.399 172.875 112.642 173.156 112.816C173.444 112.991 173.77 113.078 174.135 113.078C174.507 113.078 174.822 112.995 175.08 112.828C175.345 112.661 175.554 112.444 175.706 112.179L176.753 112.691C176.632 112.979 176.442 113.241 176.184 113.477C175.934 113.704 175.63 113.887 175.273 114.023C174.924 114.152 174.541 114.217 174.123 114.217ZM178.214 114.08V107.92H179.444V109.161L179.33 108.979C179.467 108.577 179.687 108.288 179.99 108.114C180.294 107.932 180.658 107.841 181.083 107.841H181.459V109.013H180.924C180.499 109.013 180.153 109.146 179.888 109.412C179.63 109.67 179.501 110.042 179.501 110.528V114.08H178.214ZM184.616 114.217C183.986 114.217 183.432 114.061 182.954 113.75C182.483 113.439 182.153 113.021 181.963 112.497L182.954 112.031C183.121 112.38 183.349 112.657 183.637 112.862C183.933 113.067 184.26 113.169 184.616 113.169C184.92 113.169 185.167 113.101 185.356 112.964C185.546 112.828 185.641 112.642 185.641 112.406C185.641 112.255 185.599 112.133 185.516 112.042C185.432 111.943 185.326 111.864 185.197 111.803C185.076 111.742 184.95 111.697 184.821 111.666L183.854 111.393C183.322 111.241 182.924 111.013 182.658 110.71C182.4 110.399 182.271 110.038 182.271 109.628C182.271 109.256 182.366 108.934 182.556 108.66C182.745 108.38 183.007 108.163 183.341 108.011C183.675 107.86 184.051 107.784 184.468 107.784C185.03 107.784 185.531 107.924 185.971 108.205C186.412 108.478 186.723 108.862 186.905 109.355L185.914 109.822C185.793 109.526 185.599 109.29 185.334 109.116C185.076 108.941 184.783 108.854 184.457 108.854C184.176 108.854 183.952 108.922 183.785 109.059C183.618 109.188 183.535 109.359 183.535 109.571C183.535 109.715 183.573 109.837 183.649 109.936C183.725 110.027 183.823 110.103 183.945 110.163C184.066 110.216 184.191 110.262 184.32 110.3L185.322 110.596C185.831 110.74 186.222 110.968 186.495 111.279C186.768 111.583 186.905 111.947 186.905 112.372C186.905 112.737 186.806 113.059 186.609 113.34C186.419 113.613 186.153 113.83 185.812 113.989C185.47 114.141 185.072 114.217 184.616 114.217Z" fill="#333332"/>
<path d="M148.918 43.7539L146.57 40.5008L151.266 40.5008L148.918 43.7539Z" fill="#474746"/>
<path d="M28.9117 44.9941V36.9156H29.9744V44.0182H33.5203V44.9941H28.9117ZM36.3088 45.1243C35.9257 45.1243 35.5859 45.0556 35.2895 44.9182C35.0004 44.7737 34.7727 44.5785 34.6064 44.3327C34.4401 44.0797 34.357 43.7905 34.357 43.4652C34.357 43.1543 34.422 42.876 34.5522 42.6302C34.6895 42.3772 34.8992 42.1639 35.1811 41.9904C35.4703 41.8169 35.8317 41.694 36.2655 41.6217L38.4342 41.2639V42.1097L36.4932 42.435C36.1173 42.5001 35.8426 42.6194 35.6691 42.7929C35.5028 42.9664 35.4197 43.1796 35.4197 43.4326C35.4197 43.6712 35.5136 43.87 35.7016 44.0291C35.8968 44.1881 36.139 44.2676 36.4281 44.2676C36.7968 44.2676 37.1149 44.1917 37.3824 44.0399C37.6571 43.8809 37.8703 43.6676 38.0222 43.4001C38.1812 43.1326 38.2607 42.8362 38.2607 42.5109V41.0253C38.2607 40.7073 38.1414 40.4506 37.9029 40.2554C37.6715 40.053 37.3643 39.9518 36.9812 39.9518C36.6486 39.9518 36.3522 40.0386 36.092 40.2121C35.839 40.3783 35.651 40.6024 35.5281 40.8844L34.6498 40.4289C34.7582 40.1615 34.9317 39.9229 35.1703 39.7133C35.4088 39.4964 35.6871 39.3265 36.0052 39.2036C36.3233 39.0807 36.6558 39.0193 37.0028 39.0193C37.451 39.0193 37.845 39.106 38.1848 39.2795C38.5246 39.4458 38.7884 39.6807 38.9764 39.9844C39.1716 40.2807 39.2692 40.6277 39.2692 41.0253V44.9941H38.2824V43.8881L38.4667 43.9531C38.3438 44.1845 38.1776 44.3869 37.9679 44.5604C37.7583 44.7339 37.5125 44.8712 37.2306 44.9725C36.9486 45.0737 36.6414 45.1243 36.3088 45.1243ZM40.8328 44.9941V39.1494H41.8196V40.288L41.6569 40.1904C41.8015 39.8217 42.0328 39.5361 42.3509 39.3337C42.6762 39.1241 43.0557 39.0193 43.4895 39.0193C43.9088 39.0193 44.2811 39.1132 44.6064 39.3012C44.9389 39.4892 45.1992 39.7494 45.3871 40.0819C45.5823 40.4145 45.6799 40.7904 45.6799 41.2097V44.9941H44.6606V41.535C44.6606 41.2097 44.6028 40.935 44.4871 40.7109C44.3714 40.4868 44.2052 40.3133 43.9883 40.1904C43.7787 40.0603 43.5365 39.9952 43.2618 39.9952C42.9871 39.9952 42.7413 40.0603 42.5244 40.1904C42.3148 40.3133 42.1485 40.4904 42.0256 40.7217C41.9027 40.9458 41.8413 41.2169 41.8413 41.535V44.9941H40.8328ZM49.9098 47.3798C49.4978 47.3798 49.1146 47.3147 48.7604 47.1846C48.4134 47.0544 48.1134 46.8737 47.8604 46.6424C47.6146 46.4183 47.4266 46.1544 47.2965 45.8508L48.2399 45.417C48.3411 45.6918 48.5327 45.9231 48.8146 46.111C49.1038 46.3062 49.4652 46.4038 49.899 46.4038C50.2315 46.4038 50.5315 46.3388 50.799 46.2086C51.0737 46.0857 51.2906 45.8978 51.4496 45.6448C51.6087 45.399 51.6882 45.099 51.6882 44.7447V43.4326L51.8725 43.6278C51.6701 44.0254 51.3773 44.3291 50.9942 44.5387C50.6183 44.7484 50.2026 44.8532 49.7472 44.8532C49.1977 44.8532 48.7062 44.7267 48.2724 44.4736C47.8387 44.2134 47.4989 43.8628 47.2531 43.4218C47.0073 42.9736 46.8844 42.4784 46.8844 41.9362C46.8844 41.3868 47.0073 40.8916 47.2531 40.4506C47.4989 40.0097 47.8351 39.6627 48.2616 39.4096C48.6953 39.1494 49.1869 39.0193 49.7363 39.0193C50.1918 39.0193 50.6038 39.1241 50.9725 39.3337C51.3484 39.5361 51.6484 39.8181 51.8725 40.1795L51.7207 40.4506V39.1494H52.7075V44.7447C52.7075 45.2508 52.5882 45.7026 52.3496 46.1002C52.1111 46.4978 51.7785 46.8087 51.352 47.0328C50.9327 47.2641 50.452 47.3798 49.9098 47.3798ZM49.8339 43.8772C50.1809 43.8772 50.4918 43.7905 50.7665 43.617C51.0484 43.4435 51.2725 43.2122 51.4388 42.923C51.605 42.6266 51.6882 42.2977 51.6882 41.9362C51.6882 41.582 51.605 41.2567 51.4388 40.9603C51.2725 40.6639 51.0484 40.4289 50.7665 40.2554C50.4918 40.0819 50.1809 39.9952 49.8339 39.9952C49.4797 39.9952 49.158 40.0819 48.8688 40.2554C48.5797 40.4289 48.3519 40.6639 48.1857 40.9603C48.0266 41.2494 47.9471 41.5748 47.9471 41.9362C47.9471 42.2977 48.0266 42.6266 48.1857 42.923C48.3519 43.2122 48.576 43.4435 48.858 43.617C49.1471 43.7905 49.4725 43.8772 49.8339 43.8772ZM56.3421 45.1243C55.9228 45.1243 55.5433 45.0267 55.2035 44.8315C54.8709 44.6363 54.6107 44.3652 54.4227 44.0182C54.242 43.664 54.1516 43.2591 54.1516 42.8037V39.1494H55.1601V42.6953C55.1601 42.9844 55.2179 43.2375 55.3336 43.4543C55.4565 43.6712 55.6228 43.8411 55.8324 43.964C56.0493 44.0869 56.2951 44.1483 56.5698 44.1483C56.8445 44.1483 57.0867 44.0869 57.2963 43.964C57.5132 43.8411 57.6795 43.664 57.7951 43.4326C57.918 43.2013 57.9795 42.9266 57.9795 42.6085V39.1494H58.9988V44.9941H58.012V43.8556L58.1747 43.9531C58.0373 44.3218 57.8024 44.611 57.4698 44.8206C57.1445 45.0231 56.7686 45.1243 56.3421 45.1243ZM62.2744 45.1243C61.8913 45.1243 61.5515 45.0556 61.2551 44.9182C60.966 44.7737 60.7382 44.5785 60.572 44.3327C60.4057 44.0797 60.3226 43.7905 60.3226 43.4652C60.3226 43.1543 60.3876 42.876 60.5177 42.6302C60.6551 42.3772 60.8647 42.1639 61.1467 41.9904C61.4358 41.8169 61.7973 41.694 62.2311 41.6217L64.3998 41.2639V42.1097L62.4588 42.435C62.0829 42.5001 61.8081 42.6194 61.6346 42.7929C61.4684 42.9664 61.3852 43.1796 61.3852 43.4326C61.3852 43.6712 61.4792 43.87 61.6672 44.0291C61.8624 44.1881 62.1045 44.2676 62.3937 44.2676C62.7624 44.2676 63.0805 44.1917 63.348 44.0399C63.6227 43.8809 63.8359 43.6676 63.9877 43.4001C64.1468 43.1326 64.2263 42.8362 64.2263 42.5109V41.0253C64.2263 40.7073 64.107 40.4506 63.8685 40.2554C63.6371 40.053 63.3299 39.9518 62.9467 39.9518C62.6142 39.9518 62.3178 40.0386 62.0576 40.2121C61.8045 40.3783 61.6166 40.6024 61.4937 40.8844L60.6153 40.4289C60.7238 40.1615 60.8973 39.9229 61.1358 39.7133C61.3744 39.4964 61.6527 39.3265 61.9708 39.2036C62.2889 39.0807 62.6214 39.0193 62.9684 39.0193C63.4166 39.0193 63.8106 39.106 64.1504 39.2795C64.4902 39.4458 64.754 39.6807 64.942 39.9844C65.1372 40.2807 65.2348 40.6277 65.2348 41.0253V44.9941H64.248V43.8881L64.4323 43.9531C64.3094 44.1845 64.1432 44.3869 63.9335 44.5604C63.7239 44.7339 63.4781 44.8712 63.1961 44.9725C62.9142 45.0737 62.607 45.1243 62.2744 45.1243ZM69.5852 47.3798C69.1731 47.3798 68.79 47.3147 68.4358 47.1846C68.0888 47.0544 67.7888 46.8737 67.5357 46.6424C67.29 46.4183 67.102 46.1544 66.9719 45.8508L67.9153 45.417C68.0165 45.6918 68.2081 45.9231 68.49 46.111C68.7792 46.3062 69.1406 46.4038 69.5744 46.4038C69.9069 46.4038 70.2069 46.3388 70.4744 46.2086C70.7491 46.0857 70.966 45.8978 71.125 45.6448C71.284 45.399 71.3636 45.099 71.3636 44.7447V43.4326L71.5479 43.6278C71.3455 44.0254 71.0527 44.3291 70.6696 44.5387C70.2937 44.7484 69.878 44.8532 69.4225 44.8532C68.8731 44.8532 68.3816 44.7267 67.9478 44.4736C67.5141 44.2134 67.1743 43.8628 66.9285 43.4218C66.6827 42.9736 66.5598 42.4784 66.5598 41.9362C66.5598 41.3868 66.6827 40.8916 66.9285 40.4506C67.1743 40.0097 67.5104 39.6627 67.937 39.4096C68.3707 39.1494 68.8623 39.0193 69.4117 39.0193C69.8671 39.0193 70.2792 39.1241 70.6479 39.3337C71.0238 39.5361 71.3238 39.8181 71.5479 40.1795L71.3961 40.4506V39.1494H72.3829V44.7447C72.3829 45.2508 72.2636 45.7026 72.025 46.1002C71.7865 46.4978 71.4539 46.8087 71.0274 47.0328C70.6081 47.2641 70.1274 47.3798 69.5852 47.3798ZM69.5093 43.8772C69.8563 43.8772 70.1671 43.7905 70.4419 43.617C70.7238 43.4435 70.9479 43.2122 71.1142 42.923C71.2804 42.6266 71.3636 42.2977 71.3636 41.9362C71.3636 41.582 71.2804 41.2567 71.1142 40.9603C70.9479 40.6639 70.7238 40.4289 70.4419 40.2554C70.1671 40.0819 69.8563 39.9952 69.5093 39.9952C69.1551 39.9952 68.8334 40.0819 68.5442 40.2554C68.255 40.4289 68.0273 40.6639 67.8611 40.9603C67.702 41.2494 67.6225 41.5748 67.6225 41.9362C67.6225 42.2977 67.702 42.6266 67.8611 42.923C68.0273 43.2122 68.2514 43.4435 68.5334 43.617C68.8225 43.7905 69.1478 43.8772 69.5093 43.8772ZM76.6356 45.1243C76.0717 45.1243 75.5693 44.9905 75.1283 44.723C74.6873 44.4556 74.3403 44.0905 74.0873 43.6278C73.8343 43.1579 73.7078 42.6338 73.7078 42.0555C73.7078 41.4699 73.8307 40.9494 74.0764 40.494C74.3295 40.0386 74.6692 39.6807 75.0958 39.4205C75.5295 39.153 76.0139 39.0193 76.5488 39.0193C76.9826 39.0193 77.3657 39.0988 77.6982 39.2578C78.038 39.4096 78.3236 39.6193 78.5549 39.8868C78.7935 40.147 78.9742 40.447 79.0971 40.7868C79.2272 41.1193 79.2923 41.4663 79.2923 41.8278C79.2923 41.9073 79.285 41.9977 79.2706 42.0989C79.2633 42.1929 79.2525 42.2832 79.238 42.37H74.4451V41.5025H78.6525L78.1754 41.8928C78.2404 41.5169 78.2043 41.1808 78.0669 40.8844C77.9296 40.588 77.7272 40.353 77.4597 40.1795C77.1922 40.006 76.8886 39.9193 76.5488 39.9193C76.209 39.9193 75.8982 40.006 75.6162 40.1795C75.3343 40.353 75.1138 40.6024 74.9548 40.9278C74.803 41.2458 74.7415 41.6254 74.7704 42.0663C74.7415 42.4929 74.8066 42.8688 74.9656 43.1941C75.1319 43.5122 75.3632 43.7616 75.6596 43.9423C75.9632 44.1158 76.2922 44.2026 76.6464 44.2026C77.0368 44.2026 77.3657 44.1122 77.6332 43.9315C77.9007 43.7507 78.1175 43.5194 78.2838 43.2375L79.1296 43.6712C79.0139 43.9387 78.8332 44.1845 78.5874 44.4086C78.3489 44.6255 78.0633 44.799 77.7308 44.9291C77.4055 45.0592 77.0404 45.1243 76.6356 45.1243ZM81.0192 44.9941V43.6929H82.071V44.9941H81.0192ZM81.0192 40.4506V39.1494H82.071V40.4506H81.0192Z" fill="#141414"/>
<path d="M88.7375 44.9941V43.964H89.1821C89.5652 43.964 89.8689 43.8519 90.093 43.6278C90.3171 43.3965 90.4291 43.0856 90.4291 42.6953V36.9156H91.5026V42.6736C91.5026 43.1435 91.405 43.5519 91.2099 43.8989C91.0219 44.2459 90.7544 44.517 90.4074 44.7122C90.0604 44.9002 89.652 44.9941 89.1821 44.9941H88.7375ZM94.8722 45.1243C94.4891 45.1243 94.1493 45.0556 93.8529 44.9182C93.5638 44.7737 93.336 44.5785 93.1698 44.3327C93.0035 44.0797 92.9204 43.7905 92.9204 43.4652C92.9204 43.1543 92.9854 42.876 93.1156 42.6302C93.2529 42.3772 93.4626 42.1639 93.7445 41.9904C94.0337 41.8169 94.3951 41.694 94.8289 41.6217L96.9976 41.2639V42.1097L95.0566 42.435C94.6807 42.5001 94.406 42.6194 94.2325 42.7929C94.0662 42.9664 93.9831 43.1796 93.9831 43.4326C93.9831 43.6712 94.077 43.87 94.265 44.0291C94.4602 44.1881 94.7024 44.2676 94.9915 44.2676C95.3602 44.2676 95.6783 44.1917 95.9458 44.0399C96.2205 43.8809 96.4337 43.6676 96.5855 43.4001C96.7446 43.1326 96.8241 42.8362 96.8241 42.5109V41.0253C96.8241 40.7073 96.7048 40.4506 96.4663 40.2554C96.2349 40.053 95.9277 39.9518 95.5445 39.9518C95.212 39.9518 94.9156 40.0386 94.6554 40.2121C94.4023 40.3783 94.2144 40.6024 94.0915 40.8844L93.2132 40.4289C93.3216 40.1615 93.4951 39.9229 93.7336 39.7133C93.9722 39.4964 94.2505 39.3265 94.5686 39.2036C94.8867 39.0807 95.2192 39.0193 95.5662 39.0193C96.0144 39.0193 96.4084 39.106 96.7482 39.2795C97.088 39.4458 97.3518 39.6807 97.5398 39.9844C97.735 40.2807 97.8326 40.6277 97.8326 41.0253V44.9941H96.8458V43.8881L97.0301 43.9531C96.9072 44.1845 96.741 44.3869 96.5313 44.5604C96.3217 44.7339 96.0759 44.8712 95.794 44.9725C95.512 45.0737 95.2048 45.1243 94.8722 45.1243ZM100.917 44.9941L98.6288 39.1494H99.7566L101.589 44.0941H101.199L103.042 39.1494H104.17L101.871 44.9941H100.917ZM106.574 45.1243C106.191 45.1243 105.851 45.0556 105.554 44.9182C105.265 44.7737 105.038 44.5785 104.871 44.3327C104.705 44.0797 104.622 43.7905 104.622 43.4652C104.622 43.1543 104.687 42.876 104.817 42.6302C104.954 42.3772 105.164 42.1639 105.446 41.9904C105.735 41.8169 106.097 41.694 106.53 41.6217L108.699 41.2639V42.1097L106.758 42.435C106.382 42.5001 106.107 42.6194 105.934 42.7929C105.768 42.9664 105.685 43.1796 105.685 43.4326C105.685 43.6712 105.778 43.87 105.966 44.0291C106.162 44.1881 106.404 44.2676 106.693 44.2676C107.062 44.2676 107.38 44.1917 107.647 44.0399C107.922 43.8809 108.135 43.6676 108.287 43.4001C108.446 43.1326 108.526 42.8362 108.526 42.5109V41.0253C108.526 40.7073 108.406 40.4506 108.168 40.2554C107.936 40.053 107.629 39.9518 107.246 39.9518C106.913 39.9518 106.617 40.0386 106.357 40.2121C106.104 40.3783 105.916 40.6024 105.793 40.8844L104.915 40.4289C105.023 40.1615 105.197 39.9229 105.435 39.7133C105.674 39.4964 105.952 39.3265 106.27 39.2036C106.588 39.0807 106.921 39.0193 107.268 39.0193C107.716 39.0193 108.11 39.106 108.45 39.2795C108.789 39.4458 109.053 39.6807 109.241 39.9844C109.436 40.2807 109.534 40.6277 109.534 41.0253V44.9941H108.547V43.8881L108.732 43.9531C108.609 44.1845 108.442 44.3869 108.233 44.5604C108.023 44.7339 107.777 44.8712 107.495 44.9725C107.213 45.0737 106.906 45.1243 106.574 45.1243ZM113.19 45.1243C112.605 45.1243 112.095 44.9797 111.662 44.6905C111.228 44.4014 110.921 44.011 110.74 43.5194L111.542 43.129C111.708 43.476 111.936 43.7507 112.225 43.9531C112.515 44.1556 112.836 44.2568 113.19 44.2568C113.509 44.2568 113.772 44.1809 113.982 44.0291C114.192 43.8772 114.297 43.6784 114.297 43.4326C114.297 43.2591 114.246 43.1218 114.145 43.0206C114.051 42.9121 113.935 42.829 113.798 42.7712C113.66 42.7061 113.534 42.6591 113.418 42.6302L112.54 42.3808C112.012 42.229 111.625 42.0121 111.38 41.7302C111.141 41.4482 111.022 41.1193 111.022 40.7434C111.022 40.3964 111.108 40.0964 111.282 39.8434C111.463 39.5831 111.705 39.3807 112.009 39.2361C112.319 39.0916 112.666 39.0193 113.05 39.0193C113.563 39.0193 114.022 39.1494 114.427 39.4096C114.839 39.6699 115.131 40.035 115.305 40.5048L114.481 40.8844C114.351 40.5808 114.156 40.3422 113.895 40.1687C113.635 39.988 113.342 39.8976 113.017 39.8976C112.721 39.8976 112.486 39.9735 112.312 40.1253C112.139 40.2699 112.052 40.4542 112.052 40.6783C112.052 40.8446 112.095 40.982 112.182 41.0904C112.269 41.1916 112.374 41.2711 112.496 41.329C112.619 41.3796 112.739 41.4229 112.854 41.4591L113.809 41.741C114.286 41.8784 114.654 42.0916 114.915 42.3808C115.182 42.67 115.316 43.017 115.316 43.4218C115.316 43.7471 115.225 44.0399 115.045 44.3001C114.864 44.5604 114.615 44.7628 114.297 44.9074C113.978 45.052 113.61 45.1243 113.19 45.1243ZM119.347 45.1243C118.776 45.1243 118.266 44.9905 117.818 44.723C117.377 44.4556 117.03 44.0905 116.777 43.6278C116.524 43.1652 116.397 42.6447 116.397 42.0663C116.397 41.4808 116.524 40.9603 116.777 40.5048C117.03 40.0494 117.377 39.688 117.818 39.4205C118.266 39.153 118.776 39.0193 119.347 39.0193C119.73 39.0193 120.088 39.0879 120.42 39.2253C120.753 39.3626 121.046 39.547 121.299 39.7783C121.552 40.0097 121.736 40.2807 121.852 40.5916L120.952 41.0253C120.814 40.7217 120.605 40.4759 120.323 40.288C120.041 40.0928 119.716 39.9952 119.347 39.9952C118.993 39.9952 118.671 40.0856 118.382 40.2663C118.1 40.447 117.876 40.6928 117.709 41.0037C117.543 41.3145 117.46 41.6724 117.46 42.0772C117.46 42.4676 117.543 42.8218 117.709 43.1399C117.876 43.4507 118.1 43.6965 118.382 43.8772C118.671 44.058 118.993 44.1483 119.347 44.1483C119.716 44.1483 120.041 44.0544 120.323 43.8664C120.605 43.6712 120.814 43.4146 120.952 43.0965L121.852 43.5519C121.736 43.8556 121.552 44.1266 121.299 44.3652C121.046 44.5965 120.753 44.7809 120.42 44.9182C120.088 45.0556 119.73 45.1243 119.347 45.1243ZM123.17 44.9941V39.1494H124.157V40.2229L124.048 40.0711C124.185 39.7386 124.395 39.4928 124.677 39.3337C124.959 39.1675 125.302 39.0843 125.707 39.0843H126.065V40.0386H125.555C125.143 40.0386 124.811 40.1687 124.558 40.4289C124.305 40.682 124.178 41.0434 124.178 41.5133V44.9941H123.17ZM126.961 44.9941V39.1494H127.969V44.9941H126.961ZM126.961 38.2168V36.9156H127.969V38.2168H126.961ZM129.534 47.1629V39.1494H130.521V40.4073L130.391 40.1578C130.608 39.8109 130.904 39.5361 131.28 39.3337C131.656 39.1241 132.086 39.0193 132.57 39.0193C133.12 39.0193 133.611 39.153 134.045 39.4205C134.486 39.688 134.833 40.053 135.086 40.5157C135.339 40.9711 135.466 41.4916 135.466 42.0772C135.466 42.6483 135.339 43.1652 135.086 43.6278C134.833 44.0905 134.486 44.4556 134.045 44.723C133.611 44.9905 133.116 45.1243 132.559 45.1243C132.09 45.1243 131.659 45.0194 131.269 44.8098C130.886 44.6002 130.59 44.3038 130.38 43.9206L130.543 43.7471V47.1629H129.534ZM132.484 44.1483C132.852 44.1483 133.181 44.058 133.47 43.8772C133.759 43.6965 133.984 43.4507 134.143 43.1399C134.309 42.8218 134.392 42.4676 134.392 42.0772C134.392 41.6724 134.309 41.3181 134.143 41.0145C133.984 40.7036 133.759 40.4579 133.47 40.2771C133.181 40.0892 132.852 39.9952 132.484 39.9952C132.115 39.9952 131.782 40.0856 131.486 40.2663C131.197 40.447 130.965 40.6964 130.792 41.0145C130.626 41.3254 130.543 41.6796 130.543 42.0772C130.543 42.4676 130.626 42.8218 130.792 43.1399C130.965 43.4507 131.197 43.6965 131.486 43.8772C131.782 44.058 132.115 44.1483 132.484 44.1483ZM139.057 45.0592C138.486 45.0592 138.045 44.8965 137.734 44.5712C137.43 44.2459 137.278 43.7869 137.278 43.1941V40.1145H136.216V39.1494H136.433C136.693 39.1494 136.899 39.0699 137.051 38.9108C137.202 38.7518 137.278 38.5421 137.278 38.2819V37.8048H138.287V39.1494H139.599V40.1145H138.287V43.1616C138.287 43.3567 138.316 43.5266 138.374 43.6712C138.439 43.8158 138.543 43.9315 138.688 44.0182C138.833 44.0977 139.024 44.1375 139.263 44.1375C139.313 44.1375 139.375 44.1339 139.447 44.1266C139.527 44.1194 139.599 44.1122 139.664 44.105V44.9941C139.57 45.0158 139.465 45.0303 139.35 45.0375C139.234 45.052 139.136 45.0592 139.057 45.0592Z" fill="#474746"/>
<path d="M140.133 60.3957L142.375 67.2323C142.994 69.1209 141.966 71.1522 140.078 71.7715L135.36 73.3185C134.181 73.7052 132.877 73.4514 131.922 72.6476L126.229 67.842C126.037 67.6875 125.89 67.4706 125.809 67.2228C125.576 66.5135 125.961 65.7532 126.67 65.5206C126.918 65.4393 127.171 65.432 127.398 65.49L130.719 66.3224L127.636 56.9221C127.404 56.2128 127.788 55.4525 128.498 55.2199C129.207 54.9873 129.967 55.3721 130.2 56.0814L131.881 61.2088C131.649 60.4995 132.033 59.7392 132.743 59.5066C133.452 59.274 134.212 59.6588 134.445 60.3681L134.725 61.2226C134.493 60.5133 134.877 59.753 135.587 59.5204C136.296 59.2878 137.056 59.6726 137.289 60.3819L137.569 61.2365C137.337 60.5272 137.721 59.7668 138.431 59.5342C139.14 59.3016 139.9 59.6864 140.133 60.3957Z" fill="white"/>
<path d="M133.8 60.5796C133.694 60.2557 133.721 59.9239 133.845 59.6336C133.719 59.5585 133.582 59.5057 133.438 59.4746L133.8 60.5796Z" fill="#DFDFDF"/>
<path d="M139.205 59.7537L139.485 60.6083C139.379 60.2844 139.406 59.9526 139.53 59.6623C139.395 59.5817 139.246 59.5264 139.09 59.498C139.136 59.5776 139.175 59.6623 139.205 59.7537Z" fill="#DFDFDF"/>
<path d="M136.361 59.7381L136.641 60.5927C136.535 60.2688 136.563 59.937 136.686 59.6467C136.551 59.5661 136.402 59.5108 136.246 59.4824C136.292 59.562 136.331 59.6467 136.361 59.7381Z" fill="#DFDFDF"/>
<path d="M133.836 72.0195L128.143 67.2139C127.95 67.0593 127.803 66.8425 127.722 66.5947C127.609 66.2503 127.644 65.8952 127.789 65.5922L127.389 65.4924C127.162 65.4344 126.909 65.4417 126.661 65.523C125.951 65.7556 125.567 66.5159 125.799 67.2252C125.881 67.473 126.027 67.6899 126.22 67.8444L131.913 72.65C132.868 73.4538 134.172 73.7076 135.351 73.3209L137.274 72.6903C136.095 73.0771 134.79 72.8233 133.836 72.0195Z" fill="#DFDFDF"/>
<path d="M132.637 65.6922L129.554 56.2919C129.448 55.968 129.475 55.6363 129.599 55.3459C129.276 55.1547 128.878 55.0939 128.493 55.2203C127.783 55.4529 127.399 56.2132 127.631 56.9225L130.316 65.1101L132.637 65.6922Z" fill="#DFDFDF"/>
<path d="M136.203 63.578L134.921 63.9984L133.8 60.5801C133.684 60.2271 133.302 60.0333 132.949 60.1493C132.595 60.2654 132.402 60.6475 132.518 61.0005L131.236 61.4208C130.889 60.3612 131.468 59.2153 132.528 58.8675C133.589 58.5197 134.734 59.1001 135.082 60.1597L136.203 63.578Z" fill="#141414"/>
<path d="M138.77 62.7371L137.488 63.1575L136.647 60.5938C136.532 60.2408 136.15 60.047 135.796 60.163C135.442 60.279 135.25 60.6612 135.366 61.0141L134.084 61.4345C133.736 60.3748 134.315 59.229 135.376 58.8812C136.436 58.5334 137.582 59.1137 137.929 60.1734L138.77 62.7371Z" fill="#141414"/>
<path d="M140.287 72.4135L135.573 73.9596C134.175 74.4178 132.61 74.1136 131.485 73.1639C131.485 73.1639 125.876 68.4272 125.796 68.3597C125.512 68.1322 125.29 67.8083 125.167 67.434C124.82 66.3744 125.399 65.2285 126.459 64.8807C126.823 64.7616 127.205 64.7461 127.564 64.8363L129.696 65.3714L126.995 57.1334C126.647 56.0737 127.226 54.9278 128.287 54.58C129.347 54.2323 130.493 54.8126 130.84 55.8723L133.643 64.4179L132.361 64.8383L129.558 56.2926C129.443 55.9397 129.061 55.7459 128.707 55.8619C128.354 55.9779 128.161 56.3601 128.277 56.713L131.359 66.1132C131.436 66.3465 131.38 66.6025 131.212 66.7834C131.043 66.9618 130.791 67.0368 130.554 66.9785L127.236 66.1461C127.124 66.1165 127.001 66.1228 126.88 66.1626C126.526 66.2786 126.333 66.6607 126.449 67.0137C126.49 67.1376 126.561 67.2449 126.651 67.3167L126.608 67.3705C127.092 67.6888 127.924 68.3917 129.51 69.7304L132.356 72.1335C133.125 72.7822 134.197 72.9911 135.153 72.6775L139.868 71.1314C141.399 70.6292 142.237 68.9746 141.734 67.4432L139.492 60.6067C139.377 60.2537 138.995 60.0599 138.641 60.1759C138.287 60.292 138.094 60.6744 138.21 61.0273L136.928 61.4477C136.58 60.388 137.16 59.2422 138.22 58.8944C139.281 58.5466 140.426 59.1269 140.773 60.1866L143.015 67.0231C143.749 69.2612 142.525 71.6795 140.287 72.4135Z" fill="#141414"/>
<g clipPath="url(#clip1_1836_1243)" filter="url(#filter1_f_1836_1243)">
<path d="M260.393 76.7844L262.523 41.0977L296.899 46.0514L288.854 80.8261L274.258 82.9049L260.393 76.7844Z" fill="#E34F26"/>
<path d="M274.741 79.5005L279.367 46.9199L293.521 48.978L286.856 77.7691L274.741 79.5005Z" fill="#EF652A"/>
<path d="M288.477 56.5165L289.49 52.2671L267.707 49.1738L267.036 62.5474L282.069 64.6823L280.68 70.2296L275.68 70.847L270.997 68.7338L271.214 65.3372L266.895 64.7238L266.511 71.6692L275.032 75.4136L284.329 74.1995L287.434 60.9786L271.646 58.7366L271.839 54.1539L288.477 56.5165Z" fill="white"/>
</g>
<g clipPath="url(#clip2_1836_1243)">
<path d="M218.765 4.21275L219.785 30.2333L209.994 34.39L199.501 32.8221L193.965 7.37305L218.765 4.21275Z" fill="#264DE4"/>
<path d="M209.73 32.2013L217.642 28.8424L216.77 6.60665L206.633 7.89844L209.73 32.2013Z" fill="#2965F1"/>
<path d="M207.851 17.4444L200.625 18.3652L201.305 21.4862L208.253 20.6009L207.851 17.4444Z" fill="#EBEBEB"/>
<path d="M207.035 11.0529L207.025 11.0542L199.25 12.0449L199.934 15.1655L207.437 14.2094L207.035 11.0529Z" fill="#EBEBEB"/>
<path d="M201.645 23.0449L202.711 27.9457L209.3 28.9302L209.313 28.9243L208.895 25.6402L208.882 25.6457L205.303 25.1371L204.761 22.6478L203.081 22.8619L201.645 23.0449Z" fill="#EBEBEB"/>
<path d="M212.063 20.1148L212.224 24.2544L208.883 25.6459L209.301 28.9298L215.437 26.3253L215.416 25.7861L215.087 17.3831L215.055 16.5258L214.801 10.0656L207.023 11.0566L207.426 14.2132L211.801 13.6557L211.93 16.924L207.838 17.4455L208.24 20.6019L212.063 20.1148Z" fill="white"/>
</g>
</g>
<defs>
<filter id="filter0_bd_1836_1243" x="-13.1952" y="-1.78895" width="311.215" height="165.908" filterUnits="userSpaceOnUse" color-interpolation-filters="sRGB">
<feFlood flood-opacity="0" result="BackgroundImageFix"/>
<feGaussianBlur in="BackgroundImageFix" stdDeviation="12.1992"/>
<feComposite in2="SourceAlpha" operator="in" result="effect1_backgroundBlur_1836_1243"/>
<feColorMatrix in="SourceAlpha" type="matrix" values="0 0 0 0 0 0 0 0 0 0 0 0 0 0 0 0 0 0 127 0" result="hardAlpha"/>
<feMorphology radius="10.3015" operator="erode" in="SourceAlpha" result="effect2_dropShadow_1836_1243"/>
<feOffset dy="13.0124"/>
<feGaussianBlur stdDeviation="10.8437"/>
<feComposite in2="hardAlpha" operator="out"/>
<feColorMatrix type="matrix" values="0 0 0 0 0.0784314 0 0 0 0 0.0784314 0 0 0 0 0.0784314 0 0 0 0.15 0"/>
<feBlend mode="normal" in2="effect1_backgroundBlur_1836_1243" result="effect2_dropShadow_1836_1243"/>
<feBlend mode="normal" in="SourceGraphic" in2="effect2_dropShadow_1836_1243" result="shape"/>
</filter>
<filter id="filter1_f_1836_1243" x="252.588" y="36.6957" width="48.6652" height="53.0373" filterUnits="userSpaceOnUse" color-interpolation-filters="sRGB">
<feFlood flood-opacity="0" result="BackgroundImageFix"/>
<feBlend mode="normal" in="SourceGraphic" in2="BackgroundImageFix" result="shape"/>
<feGaussianBlur stdDeviation="2.16874" result="effect1_foregroundBlur_1836_1243"/>
</filter>
<clipPath id="clip0_1836_1243">
<rect width="303" height="155" fill="white"/>
</clipPath>
<clipPath id="clip1_1836_1243">
<rect width="34.7301" height="39.8753" fill="white" transform="translate(262.531 41.0332) rotate(8.0823)"/>
</clipPath>
<clipPath id="clip2_1836_1243">
<rect width="28.3538" height="28.8264" fill="white" transform="translate(192.293 7.58398) rotate(-7.262)"/>
</clipPath>
</defs>
</svg>
