<svg width="194" height="48" viewBox="0 0 194 48" fill="none" xmlns="http://www.w3.org/2000/svg">
<path d="M1.1416 6.85689V28.5877H6.10135V21.758H9.35618C11.4951 21.758 13.293 21.044 14.7499 19.585C16.2068 18.1259 16.9508 16.3874 16.9508 14.3075C16.9508 12.2275 16.2068 10.489 14.7499 9.02997C13.293 7.5709 11.4951 6.85689 9.35618 6.85689H1.1416ZM6.10135 17.1014V11.5135H9.35618C10.8751 11.5135 11.991 12.7242 11.991 14.3075C11.991 15.8907 10.8751 17.1014 9.35618 17.1014H6.10135Z" fill="#2D1959"/>
<path d="M29.5848 14.5248C28.4999 13.252 26.95 12.6311 24.9661 12.6311C22.9202 12.6311 21.1842 13.4382 19.7273 15.0215C18.2704 16.6047 17.5574 18.5295 17.5574 20.8267C17.5574 23.124 18.2704 25.0798 19.7273 26.663C21.1842 28.2462 22.9202 29.0223 24.9661 29.0223C26.95 29.0223 28.4999 28.4015 29.5848 27.1287V28.5877H34.2346V13.0657H29.5848V14.5248ZM23.2301 23.5896C22.5482 22.9067 22.2072 21.9753 22.2072 20.8267C22.2072 19.6781 22.5482 18.7468 23.2301 18.0638C23.9121 17.3808 24.8111 17.0393 25.896 17.0393C26.981 17.0393 27.8799 17.3808 28.5619 18.0638C29.2438 18.7468 29.5848 19.6781 29.5848 20.8267C29.5848 21.9753 29.2438 22.9067 28.5619 23.5896C27.8799 24.2726 26.981 24.6141 25.896 24.6141C24.8111 24.6141 23.9121 24.2726 23.2301 23.5896Z" fill="#2D1959"/>
<path d="M44.4965 22.5652L41.0557 13.0657H35.9409L42.1096 27.8737C41.3967 29.7674 40.3737 30.4504 38.2348 30.4504V34.7965C42.6056 35.0139 45.3335 32.996 47.0694 28.1221L52.3701 13.0657H47.4104L44.4965 22.5652Z" fill="#2D1959"/>
<path d="M175.018 33.4622C174.728 32.6042 174.942 32.213 175.308 32.0237C175.875 31.7335 176.53 31.9985 176.744 32.0237C176.87 32.0364 180.209 33.2098 186.042 35.7333C189.847 31.948 192.19 26.6991 192.19 20.9075C192.19 9.36234 182.842 0 171.314 0H80.9022C69.374 0 60.0254 9.36234 60.0254 20.9075C60.0254 32.4527 69.374 41.8151 80.9022 41.8151H171.314C173.632 41.8151 175.862 41.4365 177.941 40.73C175.875 35.9605 175.056 33.5631 175.018 33.4622Z" fill="#635BFE"/>
<path d="M177.537 34.2533C177.293 34.3176 177.274 34.4691 177.293 34.6041C177.252 34.864 182.962 47.7139 183.057 47.8438C183.224 48.0709 183.592 48.0457 183.719 47.7984C183.741 47.758 184.013 46.8811 184.328 45.8502C184.979 43.7052 185.028 43.5551 185.152 43.3115C185.419 42.7778 185.893 42.3021 186.426 42.0359C186.668 41.9122 186.819 41.863 188.961 41.2107C189.99 40.8952 190.866 40.6227 190.906 40.6013C191.154 40.4751 191.178 40.1054 190.951 39.9376C190.806 39.8328 177.994 34.3315 177.865 34.3176C177.865 34.3164 177.608 34.2091 177.537 34.2533Z" fill="#FFAF30"/>
<path d="M95.8718 13.029C93.8259 13.029 92.338 13.712 91.377 15.0779C90.4781 13.712 89.1141 13.029 87.3162 13.029C85.3943 13.029 83.9994 13.6499 83.1625 14.8917V13.4636H78.5127V28.9857H83.1625V20.2312C83.1625 18.3996 84.0614 17.3131 85.5803 17.3131C87.0373 17.3131 87.8122 18.2755 87.8122 19.8587V28.9857H92.462V20.2312C92.462 18.3996 93.3609 17.3131 94.8799 17.3131C96.3368 17.3131 97.1117 18.2755 97.1117 19.8587V28.9857H101.761V19.4551C101.761 17.4994 101.235 15.9472 100.15 14.7985C99.0646 13.6189 97.6387 13.029 95.8718 13.029Z" fill="white"/>
<path d="M118.207 27.0609C119.788 25.4777 120.594 23.5219 120.594 21.2247C120.594 18.9274 119.788 17.0027 118.207 15.4194C116.626 13.8362 114.674 13.029 112.38 13.029C110.086 13.029 108.133 13.8362 106.552 15.4194C104.971 17.0027 104.165 18.9274 104.165 21.2247C104.165 23.5219 104.971 25.4777 106.552 27.0609C108.133 28.6442 110.086 29.4203 112.38 29.4203C114.674 29.4203 116.626 28.6442 118.207 27.0609ZM109.838 23.8634C109.156 23.1804 108.815 22.3112 108.815 21.2247C108.815 20.1381 109.156 19.2689 109.838 18.5859C110.52 17.9029 111.357 17.5615 112.38 17.5615C113.403 17.5615 114.24 17.9029 114.922 18.5859C115.603 19.2689 115.944 20.1381 115.944 21.2247C115.944 22.3112 115.603 23.1804 114.922 23.8634C114.24 24.5464 113.403 24.8879 112.38 24.8879C111.357 24.8879 110.52 24.5464 109.838 23.8634Z" fill="white"/>
<path d="M132.307 13.029C130.292 13.029 128.804 13.6499 127.874 14.9227V13.4636H123.224V28.9857H127.874V20.5106C127.874 18.3996 128.99 17.3131 130.757 17.3131C132.338 17.3131 133.454 18.3065 133.454 20.1381V28.9857H138.104V19.4551C138.104 17.4373 137.546 15.8851 136.43 14.7364C135.345 13.5878 133.95 13.029 132.307 13.029Z" fill="white"/>
<path d="M156.455 23.0873C156.579 22.4975 156.641 21.8766 156.641 21.2247C156.641 18.8963 155.897 16.9406 154.378 15.3884C152.89 13.8051 151.03 13.029 148.767 13.029C146.349 13.029 144.365 13.8051 142.815 15.3884C141.297 16.9406 140.522 18.8963 140.522 21.2247C140.522 23.584 141.297 25.5398 142.846 27.092C144.427 28.6442 146.504 29.4203 149.108 29.4203C152.084 29.4203 154.347 28.3648 155.866 26.2227L152.146 24.0807C151.433 24.8568 150.441 25.2604 149.17 25.2604C147.217 25.2604 145.977 24.5464 145.45 23.0873H156.455ZM145.357 19.6104C145.822 17.965 146.938 17.1579 148.736 17.1579C150.472 17.1579 151.557 17.965 152.022 19.6104H145.357Z" fill="white"/>
<path d="M165.523 22.9631L162.082 13.4636H156.968L163.136 28.2717C162.423 30.1653 161.4 30.8483 159.262 30.8483V35.1945C163.632 35.4118 166.36 33.3939 168.096 28.52L173.397 13.4636H168.437L165.523 22.9631Z" fill="white"/>
</svg>
